<svg width="57" height="43" viewBox="0 0 57 43" fill="none" xmlns="http://www.w3.org/2000/svg">
<g clip-path="url(#clip0_26_43)">
<path d="M40 12.9286C40 11.0173 38.4936 9.46558 36.635 9.46558C36.1798 9.46558 35.7472 9.56114 35.3499 9.72964C35.3574 9.64162 35.3625 9.55108 35.3625 9.46306C35.3625 7.5492 33.856 6 31.9975 6C30.1389 6 28.6325 7.5492 28.6325 9.46306C28.6325 9.5536 28.64 9.64162 28.6451 9.72964C28.2477 9.56114 27.8152 9.46558 27.3599 9.46558C25.5064 9.46558 24 11.0173 24 12.9286C24 14.5608 25.099 15.9264 26.5778 16.2936C26.0748 16.8972 25.7705 17.6793 25.7705 18.5395C25.7705 20.4508 27.277 22.0025 29.133 22.0025C30.3477 22.0025 31.4065 21.3386 32 20.3477C32.591 21.3386 33.6523 22.0025 34.8645 22.0025C36.723 22.0025 38.2295 20.4533 38.2295 18.5395C38.2295 17.6819 37.9252 16.8972 37.4222 16.2936C38.901 15.929 40 14.5633 40 12.9286ZM35.6869 14.3119C35.5511 14.3119 35.4404 14.2188 35.4027 14.0931H32.3068L34.6658 15.6372C34.7186 15.5794 34.7966 15.5442 34.8796 15.5442C35.0456 15.5442 35.1814 15.685 35.1814 15.856C35.1814 16.027 35.0456 16.1679 34.8796 16.1679C34.7136 16.1679 34.5753 16.027 34.5753 15.856C34.5753 15.8384 34.5828 15.8208 34.5853 15.8032L32.2817 14.2942L34.354 17.7196C34.3791 17.712 34.4018 17.7045 34.4294 17.7045C34.5954 17.7045 34.7312 17.8428 34.7312 18.0163C34.7312 18.1899 34.5954 18.3282 34.4294 18.3282C34.2634 18.3282 34.1276 18.1874 34.1276 18.0163C34.1276 17.9384 34.1578 17.868 34.2031 17.8152L32.0352 14.2289L31.3511 16.8394C31.4316 16.8947 31.4844 16.9827 31.4844 17.0909C31.4844 17.2619 31.3486 17.4027 31.1826 17.4027C31.0167 17.4027 30.8809 17.2644 30.8809 17.0909C30.8809 16.9173 31.0167 16.779 31.1826 16.779L31.7963 14.4301L29.9931 16.9098C30.0283 16.9601 30.056 17.0204 30.056 17.0883C30.056 17.2594 29.9202 17.4002 29.7542 17.4002C29.5882 17.4002 29.4524 17.2619 29.4524 17.0883C29.4524 16.9148 29.5882 16.7765 29.7542 16.7765C29.7894 16.7765 29.8221 16.7865 29.8548 16.7966L31.6957 14.2666L29.4172 15.4914C29.4197 15.509 29.4272 15.524 29.4272 15.5442C29.4272 15.7152 29.2914 15.856 29.1254 15.856C28.9594 15.856 28.8236 15.7152 28.8236 15.5442C28.8236 15.3732 28.9594 15.2323 29.1254 15.2323C29.2109 15.2323 29.2864 15.2675 29.3417 15.3254L31.7058 14.0578L29.0953 13.7561C29.0525 13.8717 28.9444 13.9547 28.8136 13.9547C28.6476 13.9547 28.5118 13.8139 28.5118 13.6429C28.5118 13.4719 28.6476 13.331 28.8136 13.331C28.9569 13.331 29.0701 13.4341 29.1028 13.5699L31.746 13.8768L29.9025 12.1063C29.8573 12.1339 29.8095 12.1515 29.7567 12.1515C29.5907 12.1515 29.4549 12.0132 29.4549 11.8397C29.4549 11.6661 29.5907 11.5278 29.7567 11.5278C29.9227 11.5278 30.0585 11.6687 30.0585 11.8397C30.0585 11.8875 30.0459 11.9327 30.0258 11.9755L31.9145 13.7887V9.97611C31.7913 9.93587 31.7007 9.8227 31.7007 9.68186C31.7007 9.51085 31.8365 9.37001 32.0025 9.37001C32.1685 9.37001 32.3043 9.51085 32.3043 9.68186C32.3043 9.82018 32.2138 9.93587 32.0905 9.97611V13.5574L33.0236 11.3065C32.9582 11.2487 32.9154 11.1657 32.9154 11.0726C32.9154 10.9016 33.0512 10.7608 33.2172 10.7608C33.3832 10.7608 33.519 10.9016 33.519 11.0726C33.519 11.2436 33.3832 11.3845 33.2172 11.3845C33.2072 11.3845 33.1971 11.3794 33.187 11.3794L32.176 13.8164L34.1452 12.8683C34.1377 12.8406 34.1276 12.8155 34.1276 12.7828C34.1276 12.6118 34.2634 12.4709 34.4294 12.4709C34.5954 12.4709 34.7312 12.6118 34.7312 12.7828C34.7312 12.9538 34.5954 13.0946 34.4294 13.0946C34.3565 13.0946 34.2936 13.067 34.2433 13.0217L32.4024 13.9069H35.4052C35.4455 13.7812 35.5536 13.6856 35.6894 13.6856C35.8554 13.6856 35.9912 13.8265 35.9912 13.9975C35.9912 14.1685 35.8554 14.3093 35.6894 14.3093L35.6869 14.3119Z" fill="#E94829"/>
</g>
<g clip-path="url(#clip1_26_43)">
<path d="M40 37.3304C40 36.1358 39.0585 35.166 37.8969 35.166C37.6124 35.166 37.342 35.2257 37.0937 35.331C37.0984 35.276 37.1015 35.2194 37.1015 35.1644C37.1015 33.9682 36.16 33 34.9984 33C33.8368 33 32.8953 33.9682 32.8953 35.1644C32.8953 35.221 32.9 35.276 32.9032 35.331C32.6548 35.2257 32.3845 35.166 32.1 35.166C30.9415 35.166 30 36.1358 30 37.3304C30 38.3505 30.6869 39.204 31.6111 39.4335C31.2968 39.8108 31.1066 40.2996 31.1066 40.8372C31.1066 42.0318 32.0481 43.0016 33.2081 43.0016C33.9673 43.0016 34.629 42.5866 35 41.9673C35.3694 42.5866 36.0327 43.0016 36.7903 43.0016C37.9519 43.0016 38.8934 42.0333 38.8934 40.8372C38.8934 40.3012 38.7032 39.8108 38.3889 39.4335C39.3131 39.2056 40 38.3521 40 37.3304ZM37.3043 38.1949C37.2194 38.1949 37.1503 38.1367 37.1267 38.0582H35.1918L36.6661 39.0233C36.6992 38.9871 36.7479 38.9651 36.7997 38.9651C36.9035 38.9651 36.9884 39.0531 36.9884 39.16C36.9884 39.2669 36.9035 39.3549 36.7997 39.3549C36.696 39.3549 36.6096 39.2669 36.6096 39.16C36.6096 39.149 36.6143 39.138 36.6158 39.127L35.176 38.1839L36.4712 40.3247C36.487 40.32 36.5011 40.3153 36.5184 40.3153C36.6221 40.3153 36.707 40.4018 36.707 40.5102C36.707 40.6187 36.6221 40.7051 36.5184 40.7051C36.4146 40.7051 36.3298 40.6171 36.3298 40.5102C36.3298 40.4615 36.3486 40.4175 36.3769 40.3845L35.022 38.143L34.5945 39.7746C34.6448 39.8092 34.6778 39.8642 34.6778 39.9318C34.6778 40.0387 34.5929 40.1267 34.4892 40.1267C34.3854 40.1267 34.3005 40.0402 34.3005 39.9318C34.3005 39.8233 34.3854 39.7369 34.4892 39.7369L34.8727 38.2688L33.7457 39.8186C33.7677 39.85 33.785 39.8878 33.785 39.9302C33.785 40.0371 33.7001 40.1251 33.5964 40.1251C33.4926 40.1251 33.4077 40.0387 33.4077 39.9302C33.4077 39.8218 33.4926 39.7353 33.5964 39.7353C33.6184 39.7353 33.6388 39.7416 33.6592 39.7479L34.8098 38.1666L33.3857 38.9321C33.3873 38.9431 33.392 38.9525 33.392 38.9651C33.392 39.072 33.3071 39.16 33.2034 39.16C33.0997 39.16 33.0148 39.072 33.0148 38.9651C33.0148 38.8582 33.0997 38.7702 33.2034 38.7702C33.2568 38.7702 33.304 38.7922 33.3386 38.8284L34.8161 38.0362L33.1845 37.8475C33.1578 37.9198 33.0902 37.9717 33.0085 37.9717C32.9047 37.9717 32.8199 37.8837 32.8199 37.7768C32.8199 37.6699 32.9047 37.5819 33.0085 37.5819C33.0981 37.5819 33.1688 37.6463 33.1892 37.7312L34.8412 37.923L33.6891 36.8164C33.6608 36.8337 33.6309 36.8447 33.5979 36.8447C33.4942 36.8447 33.4093 36.7583 33.4093 36.6498C33.4093 36.5413 33.4942 36.4549 33.5979 36.4549C33.7017 36.4549 33.7865 36.5429 33.7865 36.6498C33.7865 36.6797 33.7787 36.708 33.7661 36.7347L34.9466 37.868V35.4851C34.8695 35.4599 34.813 35.3892 34.813 35.3012C34.813 35.1943 34.8978 35.1063 35.0016 35.1063C35.1053 35.1063 35.1902 35.1943 35.1902 35.3012C35.1902 35.3876 35.1336 35.4599 35.0566 35.4851V37.7234L35.6397 36.3166C35.5989 36.2804 35.5721 36.2285 35.5721 36.1704C35.5721 36.0635 35.657 35.9755 35.7608 35.9755C35.8645 35.9755 35.9494 36.0635 35.9494 36.1704C35.9494 36.2773 35.8645 36.3653 35.7608 36.3653C35.7545 36.3653 35.7482 36.3622 35.7419 36.3622L35.11 37.8853L36.3408 37.2927C36.3361 37.2754 36.3298 37.2597 36.3298 37.2392C36.3298 37.1323 36.4146 37.0443 36.5184 37.0443C36.6221 37.0443 36.707 37.1323 36.707 37.2392C36.707 37.3461 36.6221 37.4341 36.5184 37.4341C36.4728 37.4341 36.4335 37.4169 36.4021 37.3886L35.2515 37.9418H37.1283C37.1534 37.8633 37.221 37.8035 37.3059 37.8035C37.4096 37.8035 37.4945 37.8915 37.4945 37.9984C37.4945 38.1053 37.4096 38.1933 37.3059 38.1933L37.3043 38.1949Z" fill="#E94829"/>
</g>
<g clip-path="url(#clip2_26_43)">
<path d="M13 10.3304C13 9.13581 12.0585 8.16599 10.8969 8.16599C10.6124 8.16599 10.342 8.22572 10.0937 8.33103C10.0984 8.27601 10.1015 8.21943 10.1015 8.16441C10.1015 6.96825 9.16001 6 7.99843 6C6.83684 6 5.89532 6.96825 5.89532 8.16441C5.89532 8.221 5.90003 8.27601 5.90317 8.33103C5.65483 8.22572 5.38447 8.16599 5.09997 8.16599C3.94153 8.16599 3 9.13581 3 10.3304C3 11.3505 3.68689 12.204 4.61113 12.4335C4.29676 12.8108 4.10657 13.2996 4.10657 13.8372C4.10657 15.0318 5.0481 16.0016 6.20811 16.0016C6.96731 16.0016 7.62905 15.5866 8 14.9673C8.36938 15.5866 9.03269 16.0016 9.79032 16.0016C10.9519 16.0016 11.8934 15.0333 11.8934 13.8372C11.8934 13.3012 11.7032 12.8108 11.3889 12.4335C12.3131 12.2056 13 11.3521 13 10.3304ZM10.3043 11.1949C10.2194 11.1949 10.1503 11.1367 10.1267 11.0582H8.19176L9.66614 12.0233C9.69915 11.9871 9.74788 11.9651 9.79975 11.9651C9.90349 11.9651 9.98837 12.0531 9.98837 12.16C9.98837 12.2669 9.90349 12.3549 9.79975 12.3549C9.69601 12.3549 9.60956 12.2669 9.60956 12.16C9.60956 12.149 9.61427 12.138 9.61584 12.127L8.17604 11.1839L9.47123 13.3247C9.48695 13.32 9.5011 13.3153 9.51839 13.3153C9.62213 13.3153 9.70701 13.4018 9.70701 13.5102C9.70701 13.6187 9.62213 13.7051 9.51839 13.7051C9.41465 13.7051 9.32977 13.6171 9.32977 13.5102C9.32977 13.4615 9.34863 13.4175 9.37692 13.3845L8.02201 11.143L7.59447 12.7746C7.64477 12.8092 7.67777 12.8642 7.67777 12.9318C7.67777 13.0387 7.59289 13.1267 7.48915 13.1267C7.38541 13.1267 7.30053 13.0402 7.30053 12.9318C7.30053 12.8233 7.38541 12.7369 7.48915 12.7369L7.87268 11.2688L6.74568 12.8186C6.76768 12.85 6.78497 12.8878 6.78497 12.9302C6.78497 13.0371 6.70009 13.1251 6.59635 13.1251C6.49261 13.1251 6.40773 13.0387 6.40773 12.9302C6.40773 12.8218 6.49261 12.7353 6.59635 12.7353C6.61836 12.7353 6.63879 12.7416 6.65923 12.7479L7.80981 11.1666L6.38573 11.9321C6.3873 11.9431 6.39201 11.9525 6.39201 11.9651C6.39201 12.072 6.30714 12.16 6.20339 12.16C6.09965 12.16 6.01478 12.072 6.01478 11.9651C6.01478 11.8582 6.09965 11.7702 6.20339 11.7702C6.25684 11.7702 6.30399 11.7922 6.33857 11.8284L7.81609 11.0362L6.18453 10.8475C6.15781 10.9198 6.09022 10.9717 6.00849 10.9717C5.90475 10.9717 5.81987 10.8837 5.81987 10.7768C5.81987 10.6699 5.90475 10.5819 6.00849 10.5819C6.09808 10.5819 6.16881 10.6463 6.18925 10.7312L7.84124 10.923L6.68909 9.81641C6.6608 9.8337 6.63093 9.8447 6.59792 9.8447C6.49418 9.8447 6.40931 9.75825 6.40931 9.6498C6.40931 9.54134 6.49418 9.45489 6.59792 9.45489C6.70167 9.45489 6.78654 9.54291 6.78654 9.6498C6.78654 9.67966 6.77869 9.70795 6.76611 9.73467L7.94656 10.868V8.48507C7.86954 8.45992 7.81295 8.38919 7.81295 8.30116C7.81295 8.19428 7.89783 8.10626 8.00157 8.10626C8.10531 8.10626 8.19019 8.19428 8.19019 8.30116C8.19019 8.38761 8.13361 8.45992 8.05659 8.48507V10.7234L8.63974 9.31657C8.59887 9.28042 8.57215 9.22854 8.57215 9.17039C8.57215 9.0635 8.65703 8.97548 8.76077 8.97548C8.86451 8.97548 8.94939 9.0635 8.94939 9.17039C8.94939 9.27727 8.86451 9.36529 8.76077 9.36529C8.75448 9.36529 8.74819 9.36215 8.7419 9.36215L8.11003 10.8853L9.34077 10.2927C9.33606 10.2754 9.32977 10.2597 9.32977 10.2392C9.32977 10.1323 9.41465 10.0443 9.51839 10.0443C9.62213 10.0443 9.70701 10.1323 9.70701 10.2392C9.70701 10.3461 9.62213 10.4341 9.51839 10.4341C9.47281 10.4341 9.43351 10.4169 9.40207 10.3886L8.25149 10.9418H10.1283C10.1534 10.8633 10.221 10.8035 10.3059 10.8035C10.4096 10.8035 10.4945 10.8915 10.4945 10.9984C10.4945 11.1053 10.4096 11.1933 10.3059 11.1933L10.3043 11.1949Z" fill="#E94829"/>
</g>
<g clip-path="url(#clip3_26_43)">
<path d="M16 31.9286C16 30.0173 14.4936 28.4656 12.635 28.4656C12.1798 28.4656 11.7472 28.5611 11.3499 28.7296C11.3574 28.6416 11.3625 28.5511 11.3625 28.4631C11.3625 26.5492 9.85602 25 7.99748 25C6.13895 25 4.63251 26.5492 4.63251 28.4631C4.63251 28.5536 4.64005 28.6416 4.64508 28.7296C4.24772 28.5611 3.81515 28.4656 3.35995 28.4656C1.50644 28.4656 0 30.0173 0 31.9286C0 33.5608 1.09903 34.9264 2.57781 35.2936C2.07482 35.8972 1.77051 36.6793 1.77051 37.5395C1.77051 39.4508 3.27696 41.0025 5.13298 41.0025C6.34769 41.0025 7.40648 40.3386 8 39.3477C8.59101 40.3386 9.65231 41.0025 10.8645 41.0025C12.723 41.0025 14.2295 39.4533 14.2295 37.5395C14.2295 36.6819 13.9252 35.8972 13.4222 35.2936C14.901 34.929 16 33.5633 16 31.9286ZM11.6869 33.3119C11.5511 33.3119 11.4404 33.2188 11.4027 33.0931H8.30682L10.6658 34.6372C10.7186 34.5794 10.7966 34.5442 10.8796 34.5442C11.0456 34.5442 11.1814 34.685 11.1814 34.856C11.1814 35.027 11.0456 35.1679 10.8796 35.1679C10.7136 35.1679 10.5753 35.027 10.5753 34.856C10.5753 34.8384 10.5828 34.8208 10.5853 34.8032L8.28167 33.2942L10.354 36.7196C10.3791 36.712 10.4018 36.7045 10.4294 36.7045C10.5954 36.7045 10.7312 36.8428 10.7312 37.0163C10.7312 37.1899 10.5954 37.3282 10.4294 37.3282C10.2634 37.3282 10.1276 37.1874 10.1276 37.0163C10.1276 36.9384 10.1578 36.868 10.2031 36.8152L8.03521 33.2289L7.35115 35.8394C7.43162 35.8947 7.48444 35.9827 7.48444 36.0909C7.48444 36.2619 7.34863 36.4027 7.18265 36.4027C7.01666 36.4027 6.88085 36.2644 6.88085 36.0909C6.88085 35.9173 7.01666 35.779 7.18265 35.779L7.79629 33.4301L5.9956 35.9098C6.03081 35.9601 6.05847 36.0204 6.05847 36.0883C6.05847 36.2594 5.92267 36.4002 5.75668 36.4002C5.59069 36.4002 5.45489 36.2619 5.45489 36.0883C5.45489 35.9148 5.59069 35.7765 5.75668 35.7765C5.79189 35.7765 5.82458 35.7865 5.85728 35.7966L7.69821 33.2666L5.41968 34.4914C5.42219 34.509 5.42974 34.524 5.42974 34.5442C5.42974 34.7152 5.29393 34.856 5.12795 34.856C4.96196 34.856 4.82615 34.7152 4.82615 34.5442C4.82615 34.3732 4.96196 34.2323 5.12795 34.2323C5.21345 34.2323 5.2889 34.2675 5.34172 34.3254L7.70575 33.0578L5.09525 32.7561C5.04998 32.8717 4.94184 32.9547 4.81358 32.9547C4.64759 32.9547 4.51179 32.8139 4.51179 32.6429C4.51179 32.4719 4.64759 32.331 4.81358 32.331C4.95693 32.331 5.0701 32.4341 5.1028 32.5699L7.74599 32.8768L5.90255 31.1063C5.85979 31.1339 5.80949 31.1515 5.75668 31.1515C5.59069 31.1515 5.45489 31.0132 5.45489 30.8397C5.45489 30.6661 5.59069 30.5278 5.75668 30.5278C5.92267 30.5278 6.05847 30.6687 6.05847 30.8397C6.05847 30.8875 6.0459 30.9327 6.02578 30.9755L7.91449 32.7887V28.9761C7.79126 28.9359 7.70072 28.8227 7.70072 28.6819C7.70072 28.5108 7.83653 28.37 8.00251 28.37C8.1685 28.37 8.30431 28.5108 8.30431 28.6819C8.30431 28.8202 8.21377 28.9359 8.09054 28.9761V32.5574L9.02106 30.3065C8.95567 30.2487 8.91292 30.1657 8.91292 30.0726C8.91292 29.9016 9.04873 29.7608 9.21471 29.7608C9.3807 29.7608 9.5165 29.9016 9.5165 30.0726C9.5165 30.2436 9.3807 30.3845 9.21471 30.3845C9.20465 30.3845 9.19459 30.3794 9.18453 30.3794L8.17353 32.8164L10.1427 31.8683C10.1352 31.8406 10.1251 31.8155 10.1251 31.7828C10.1251 31.6118 10.2609 31.4709 10.4269 31.4709C10.5929 31.4709 10.7287 31.6118 10.7287 31.7828C10.7287 31.9538 10.5929 32.0946 10.4269 32.0946C10.354 32.0946 10.2911 32.067 10.2408 32.0217L8.39987 32.9069H11.4027C11.4429 32.7812 11.5511 32.6856 11.6869 32.6856C11.8529 32.6856 11.9887 32.8265 11.9887 32.9975C11.9887 33.1685 11.8529 33.3093 11.6869 33.3093V33.3119Z" fill="#DEB97B"/>
</g>
<g clip-path="url(#clip4_26_43)">
<path d="M57 3.46432C57 2.50865 56.2468 1.73279 55.3175 1.73279C55.0899 1.73279 54.8736 1.78057 54.6749 1.86482C54.6787 1.82081 54.6812 1.77554 54.6812 1.73153C54.6812 0.774599 53.928 0 52.9987 0C52.0695 0 51.3163 0.774599 51.3163 1.73153C51.3163 1.7768 51.32 1.82081 51.3225 1.86482C51.1239 1.78057 50.9076 1.73279 50.68 1.73279C49.7532 1.73279 49 2.50865 49 3.46432C49 4.28041 49.5495 4.96322 50.2889 5.14681C50.0374 5.4486 49.8853 5.83967 49.8853 6.26973C49.8853 7.2254 50.6385 8.00126 51.5665 8.00126C52.1738 8.00126 52.7032 7.66929 53 7.17384C53.2955 7.66929 53.8262 8.00126 54.4323 8.00126C55.3615 8.00126 56.1147 7.22666 56.1147 6.26973C56.1147 5.84093 55.9626 5.4486 55.7111 5.14681C56.4505 4.96448 57 4.28167 57 3.46432ZM54.8434 4.15593C54.7755 4.15593 54.7202 4.1094 54.7014 4.04653H53.1534L54.3329 4.81861C54.3593 4.78969 54.3983 4.77208 54.4398 4.77208C54.5228 4.77208 54.5907 4.8425 54.5907 4.92801C54.5907 5.01352 54.5228 5.08394 54.4398 5.08394C54.3568 5.08394 54.2876 5.01352 54.2876 4.92801C54.2876 4.91921 54.2914 4.91041 54.2927 4.9016L53.1408 4.14712L54.177 5.85979C54.1896 5.85602 54.2009 5.85225 54.2147 5.85225C54.2977 5.85225 54.3656 5.92141 54.3656 6.00817C54.3656 6.09494 54.2977 6.1641 54.2147 6.1641C54.1317 6.1641 54.0638 6.09368 54.0638 6.00817C54.0638 5.96919 54.0789 5.93398 54.1015 5.90758L53.0176 4.11443L52.6756 5.41968C52.7158 5.44734 52.7422 5.49135 52.7422 5.54543C52.7422 5.63093 52.6743 5.70135 52.5913 5.70135C52.5083 5.70135 52.4404 5.63219 52.4404 5.54543C52.4404 5.45866 52.5083 5.3895 52.5913 5.3895L52.8981 4.21503L51.9978 5.45489C52.0154 5.48004 52.0292 5.51022 52.0292 5.54417C52.0292 5.62968 51.9613 5.70009 51.8783 5.70009C51.7953 5.70009 51.7274 5.63093 51.7274 5.54417C51.7274 5.4574 51.7953 5.38824 51.8783 5.38824C51.8959 5.38824 51.9123 5.39327 51.9286 5.3983L52.8491 4.13329L51.7098 4.74568C51.7111 4.75448 51.7149 4.76202 51.7149 4.77208C51.7149 4.85759 51.647 4.92801 51.564 4.92801C51.481 4.92801 51.4131 4.85759 51.4131 4.77208C51.4131 4.68658 51.481 4.61616 51.564 4.61616C51.6067 4.61616 51.6445 4.63376 51.6709 4.66268L52.8529 4.02892L51.5476 3.87803C51.525 3.93587 51.4709 3.97737 51.4068 3.97737C51.3238 3.97737 51.2559 3.90695 51.2559 3.82144C51.2559 3.73593 51.3238 3.66551 51.4068 3.66551C51.4785 3.66551 51.5351 3.71707 51.5514 3.78497L52.873 3.93838L51.9513 3.05313C51.9299 3.06696 51.9047 3.07576 51.8783 3.07576C51.7953 3.07576 51.7274 3.0066 51.7274 2.91984C51.7274 2.83307 51.7953 2.76391 51.8783 2.76391C51.9613 2.76391 52.0292 2.83433 52.0292 2.91984C52.0292 2.94373 52.0229 2.96636 52.0129 2.98774L52.9572 3.89437V1.98805C52.8956 1.96793 52.8504 1.91135 52.8504 1.84093C52.8504 1.75542 52.9183 1.685 53.0013 1.685C53.0842 1.685 53.1522 1.75542 53.1522 1.84093C53.1522 1.91009 53.1069 1.96793 53.0453 1.98805V3.77869L53.5105 2.65325C53.4778 2.62433 53.4565 2.58284 53.4565 2.53631C53.4565 2.4508 53.5244 2.38038 53.6074 2.38038C53.6903 2.38038 53.7583 2.4508 53.7583 2.53631C53.7583 2.62182 53.6903 2.69224 53.6074 2.69224C53.6023 2.69224 53.5973 2.68972 53.5923 2.68972L53.0868 3.90821L54.0714 3.43414C54.0676 3.42031 54.0626 3.40773 54.0626 3.39139C54.0626 3.30588 54.1305 3.23546 54.2135 3.23546C54.2964 3.23546 54.3644 3.30588 54.3644 3.39139C54.3644 3.47689 54.2964 3.54731 54.2135 3.54731C54.177 3.54731 54.1456 3.53348 54.1204 3.51085L53.1999 3.95347H54.7014C54.7215 3.8906 54.7755 3.84282 54.8434 3.84282C54.9264 3.84282 54.9943 3.91323 54.9943 3.99874C54.9943 4.08425 54.9264 4.15467 54.8434 4.15467V4.15593Z" fill="#DEB97B"/>
</g>
<defs>
<clipPath id="clip0_26_43">
<rect width="16" height="16" fill="white" transform="translate(24 6)"/>
</clipPath>
<clipPath id="clip1_26_43">
<rect width="10" height="10" fill="white" transform="translate(30 33)"/>
</clipPath>
<clipPath id="clip2_26_43">
<rect width="10" height="10" fill="white" transform="translate(3 6)"/>
</clipPath>
<clipPath id="clip3_26_43">
<rect width="16" height="16" fill="white" transform="translate(0 25)"/>
</clipPath>
<clipPath id="clip4_26_43">
<rect width="8" height="8" fill="white" transform="translate(49)"/>
</clipPath>
</defs>
</svg>
