<?xml version="1.0" encoding="UTF-8"?><svg id="_レイヤー_1" xmlns="http://www.w3.org/2000/svg" width="235.71mm" height="472.85mm" viewBox="0 0 668.16 1340.35"><defs><style>.cls-1{fill:#898989;}.cls-1,.cls-2,.cls-3,.cls-4,.cls-5,.cls-6,.cls-7,.cls-8,.cls-9,.cls-10,.cls-11{stroke-width:0px;}.cls-2{fill:#231815;}.cls-12{stroke-width:2.75px;}.cls-12,.cls-13,.cls-14,.cls-15,.cls-16{fill:none;stroke:#543a14;stroke-linecap:round;stroke-linejoin:round;}.cls-4{fill:#c9caca;}.cls-13{stroke-width:4.12px;}.cls-5{fill:#ffe33f;}.cls-6{fill:#fff;}.cls-7{fill:#dcdddd;}.cls-8{fill:#595757;}.cls-9{fill:#b5b5b6;}.cls-14{stroke-width:6.87px;}.cls-10{fill:#fabe00;}.cls-11{fill:#e60012;}.cls-15{stroke-width:5.5px;}.cls-16{stroke-width:8.24px;}</style></defs><path class="cls-6" d="M173.47,1237.37c51.42-.12,99.81-41.03,100.3-41.44.47-.4,1.04-.67,1.65-.77,86.94-15.09,105.42-91.95,105.6-92.73.05-.22.12-.43.21-.63,5.09-11.44,21.75-39.34,22.45-40.51,33.83-57.44,76.12-93.44,76.54-93.79.83-.7,1.88-.89,2.87-.7,17.88,1.22,39.42-5.47,39.67-5.55,21.28-6.44,35.16-26.4,35.3-26.6.33-.48.78-.81,1.26-1.06.21-.38.49-.72.88-.97,31.06-19.73,67.56-30.62,86.84-35.43-22.77.27-65.69,7.26-96.75,13.83-1.34.28-2.65-.12-3.6-.97-3.76-.75-15.65-3.14-23.54-5.26-.25-.07-.45-.22-.67-.33-.89.16-1.84.05-2.71-.41-3.92-2.11-17.91-8.27-33.79,1.52-.62.37-15.21,9.25-17.93,29.32-.07.52-.24,1.02-.49,1.47-1.74,3.09-34.61,60.77-79.14,86.48-12.21,7.05-25.31,11.7-38.88,12.15-.55.02-1.08-.08-1.57-.26-.62.01-1.25-.13-1.82-.47-17.12-10.15-42.95-27.29-69.35-58.75-.1-.12-.2-.26-.29-.4-.09-.15-9.05-14.19-26.38-18.17-1.1.41-2.36.38-3.47-.25-2.28-1.3-54.67-31.15-82.6-55.81-1.14,7.59-1.77,22.39,8.37,31.18.25.22,25.13,21.97,38.91,27.44,1.41.56,2.1,2.16,1.54,3.57-.24.6-.66,1.06-1.18,1.36-.7.41-1.58.5-2.39.18-2.34-.93-4.94-2.26-7.65-3.85-.43.05-.86.04-1.29-.13-1.42-.54-31.88-12.13-46.59-19.61.22,6.63,1.51,19.14,7.75,26.91,3.72,1.19,20.92,6.47,37.14,8.26.99-.02,1.61-.03,1.64-.03.47-.01.89.12,1.28.32,1.04.09,2.07.16,3.09.21,1.52.08,2.68,1.37,2.61,2.88-.05.97-.59,1.79-1.37,2.24-.44.26-.96.39-1.51.36-1.95-.1-3.94-.28-5.94-.49-4.63.08-16.81.24-29.37-.02,3.5,2.18,5.73,4.04,6.42,4.64,6.97,4.65,13.89,9,20.77,13.04,7.14-1.35,13.77-3.25,19.66-5.72,1.4-.59,3.01.07,3.6,1.47.54,1.29.02,2.76-1.16,3.44-.1.06-.21.11-.32.15-4.51,1.89-9.42,3.45-14.62,4.72,18.24,10.22,36.11,18.33,53.37,24.1.38.13.75.33,1.06.58,4.54,3.66,12.63,9.77,21.42,15.61,9.9-.89,31.33-9.14,31.56-9.23,10.69-4.13,22.84-3.21,23.35-3.17,1.13.09,1.98,1.08,1.89,2.22-.06.7-.46,1.3-1.02,1.62-.35.2-.76.3-1.19.27-.11,0-11.74-.88-21.53,2.91-.83.32-16.73,6.43-27.9,8.72,10.57,6.67,21.36,12.24,27.64,12.21,1.9,0,3.44,1.52,3.45,3.42,0,1.28-.69,2.4-1.72,2.99-.5.29-1.08.46-1.7.46-16.8.08-52.1-27.52-58.06-32.29-26.47-8.93-54.24-23.04-82.55-41.95-.14-.09-.27-.19-.39-.3-.16-.15-16.05-14.07-38.52-12.55-.14.1-.26.21-.41.29-.88.51-1.95.69-3.01.44-3.18-.76-76.72-18.31-117.92-38.02,1.01,8.94,5.06,28.59,21.2,36.01.37.17,37.37,17.35,55.65,19.07,1.51.14,2.62,1.48,2.48,2.99-.09.92-.62,1.69-1.37,2.12-.48.27-1.04.41-1.63.36-1.01-.09-2.07-.24-3.17-.41-.35.09-.73.12-1.12.05-1.88-.3-42.86-7-61.99-12.43,1.77,7.75,6.5,23.8,16.59,32.06,4.92.54,32.62,3.27,54.56-.07,1.5-.23,2.9.8,3.13,2.3.12.77-.12,1.49-.55,2.06.03.11.09.21.11.33.18,1.51-.91,2.87-2.41,3.05-.39.05-37.02,4.35-61.38,4.79,2.32,6.23,8.55,19.36,21.23,24.78,4.47-.15,35.07-1.7,60.91-15.49,1.34-.71,3-.21,3.72,1.13.56,1.04.35,2.26-.39,3.09-.04,1.03-.64,2-1.66,2.43-.37.16-35.44,14.91-58.71,22.47,4.05,5.28,13.86,16,27.57,17.46,3.7-1.27,26.25-9.46,45.68-25.43,3.65-3.33,5.96-5.5,6.05-5.59.18-.16.38-.25.58-.36.46-.44.93-.86,1.37-1.31,1.08-1.07,2.81-1.08,3.89,0,1.08,1.07,1.08,2.81.01,3.89-2.59,2.6-5.29,5.02-8.04,7.31-10.57,9.68-32.67,29.35-46.22,37.51,4.16,3.6,10.94,8.68,16.19,9.75,5.06-2.44,34.45-17.08,52.32-36.5,1.03-1.12,2.77-1.19,3.88-.16.58.53.86,1.25.88,1.98.24.87.09,1.83-.56,2.56-1.28,1.42-29.22,32.49-45.91,43.47,4.26,2.69,10.58,6.2,15.35,7.23,5.16-4.45,29.69-25.81,46.21-43.78,1.03-1.13,2.77-1.19,3.88-.16.41.38.63.85.75,1.35.43.86.43,1.91-.15,2.77-1.06,1.56-24.32,35.47-39.49,47.48,4.19,2.3,10.31,5.22,14.86,5.94,4.66-4.78,25.68-26.51,40.36-44.55.96-1.18,2.69-1.35,3.87-.4.81.66,1.11,1.68.93,2.64,0,.08,0,.16-.02.25,0,.01,0,.02-.01.03-.06.31-.15.62-.32.91l-.9,1.53c-9.67,16.42-21.53,35.66-30.61,44.6,4.4,1.85,10.78,4.12,15.39,4.37,3.56-4.59,17.93-23.34,30.42-42.45.06-.09.15-.14.22-.23.08-.08.15-.17.24-.24.9-.84,2.27-1.03,3.34-.33,1.27.83,1.63,2.53.8,3.81-.04.06-.08.11-.11.17-1.47,3.01-13.78,28.16-21.16,40.64,2.96-.22,6.68-.6,9.8-1.26,3.28-5.3,18.61-29.28,33.33-38.15,1.23-.72,2.99-.36,3.77.94.78,1.3.36,2.99-.94,3.77-3.01,1.82-6.09,4.39-9.1,7.34,8.73-3.89,19.59-7.87,20.19-8.09,1.07-.39,2.25.16,2.65,1.23.35.96-.05,2-.91,2.49-.1.06-.21.11-.32.15-.2.07-19.69,7.22-27.23,11.57-.42.24-.89.29-1.33.22-8.95,10.64-15.9,22.17-16.01,22.35-.24.4-.58.74-.98.97-.22.13-.46.22-.72.29-6.85,1.69-16.87,1.92-17.29,1.93-1.03.02-1.99-.54-2.48-1.45-.49-.91-.43-2.02.17-2.87,1.46-2.09,3.51-5.59,5.78-9.71-5.09,6.83-8.56,11.26-8.63,11.36-.22.28-.49.51-.79.69-.39.22-.82.35-1.28.36-6.08.21-14.46-2.9-19.28-4.95-.73.68-1.71,1.06-2.78.91-.23-.03-23.08-3.18-35.71,1.16-1.25.44-3.88,1.53-6.34,2.97,6.79-1.59,15.97-2.93,25.06-1.66.75.1,1.28.8,1.17,1.55-.06.44-.32.8-.67,1-.26.15-.56.21-.88.17-11.86-1.66-24.22,1.44-30.35,3.35-3.14,1.52-10.14,5.27-15.34,9.12,10.08-3.62,25.98-8.52,37.37-8.09.76.03,1.35.66,1.32,1.42-.02.49-.29.91-.69,1.14-.22.13-.47.19-.74.18-13.61-.5-34.76,7.22-42.67,10.33-.22.26-.45.51-.74.69-.26.16-19.95,12.79-33.93,29.84,49.31-33.07,120.61-46.44,123.92-47.05,1.87-.34,3.65.89,4,2.76.27,1.47-.44,2.89-1.66,3.6-.33.19-.7.33-1.1.41-.07.01-.7.13-1.72.34.04.84-.21,1.69-.8,2.38l-2.1,2.45c-7.67,8.9-19.26,22.35-21.86,33.69-.05.23-.19.42-.29.63.18.62.15,1.31-.15,1.94-.03.07-3.22,6.87-.63,11.84,1.54,2.96,4.97,4.88,10.19,5.7.49.08.9.31,1.26.6,14.96-7.5,49.21-22.55,49.56-22.7,1.04-.46,2.26.02,2.72,1.06.43.97.04,2.09-.85,2.61-.06.04-.13.07-.2.1-.35.15-35.46,15.57-49.97,22.91-.38.2-.79.22-1.19.17-.13.11-.23.26-.37.34-.53.3-1.15.43-1.8.33-.3-.05-.57-.12-.86-.17.85,1,2.29,2.03,4.73,2.46.6-.53,1.37-.88,2.23-.88ZM232.96,1205.01c-.4-1.07.17-2.26,1.21-2.65,13.03-4.88,31.77-9.03,32.56-9.2,1.11-.24,2.21.46,2.46,1.57.2.9-.22,1.79-.98,2.23-.18.1-.37.18-.59.23-.19.04-19.25,4.26-32.01,9.04-1.07.4-2.25-.14-2.65-1.21Z"/><path class="cls-5" d="M655.08,896.91s-33.6-10.91-108.02,10.92c0,0-22.61,25.83,8.03,31.98l6.33-5.52s24.26-17.48,93.66-37.38Z"/><path class="cls-8" d="M156.31,1207.87s-5.1,15.9,1.8,21.44c0,0-81.4,33.51-107.04,55.98,0,0-42.79,40.84-47.52,50.97,0,0-1.45-19,1.91-29.66l28.44-25.41.85-6.31,13.64,1.64,47.15-31.45,60.76-37.2Z"/><path class="cls-2" d="M158.79,1228.65l5.93,9.8s-85.1,31.68-103.93,51.28c0,0-36.79,36.58-38.06,44.45,0,0-.59-18.43,3.94-26.6,0,0,26.39-36.05,132.12-78.93Z"/><path class="cls-11" d="M467.41,930.05c8.01-14.37,24.61-14.16,24.61-14.16,28.2-1.8,28.55-14.05,28.55-14.05-11.15-7.89-23.25-5.77-23.25-5.77-18.25,3.95-26.77,15.89-30.73,27l.81,6.99Z"/><path class="cls-4" d="M5.21,1320.28s8.93-9.43,13.65-16.37c0,0-10.4,10.57-13.18,12.82l-.47,3.54Z"/><path class="cls-4" d="M4.55,1326.44s9.23-9.84,13.76-16.91c0,0-10.61,11.19-13.32,13.52l-.44,3.38Z"/><polygon class="cls-1" points="23.87 1320.01 35.55 1307.63 22.59 1324.48 23.87 1320.01"/><path class="cls-7" d="M161.84,1018.07s-29.29,11.43-42.27,11.93c0,0,8.12,12.16,42.27-11.93Z"/><path class="cls-7" d="M174.01,1027.44s-26.33,17.17-38.94,20.31c0,0,10.43,10.25,38.94-20.31Z"/><path class="cls-7" d="M194.33,1042.45s-25,19.07-37.34,23.13c0,0,11.16,9.45,37.34-23.13Z"/><path class="cls-7" d="M209.58,1051.42s-22.36,22.11-34.07,27.72c0,0,12.28,7.95,34.07-27.72Z"/><path class="cls-7" d="M226.77,1059.81s-21.2,23.22-32.61,29.42c0,0,12.67,7.31,32.61-29.42Z"/><path class="cls-7" d="M243.17,1067.19s-18.43,25.48-29.06,32.93c0,0,13.41,5.83,29.06-32.93Z"/><path class="cls-7" d="M267.54,1078s-15.35,27.44-25.06,36.08c0,0,14,4.23,25.06-36.08Z"/><path class="cls-10" d="M647.59,897.04s-64.22,6.1-105.56,38.88l11.52,4.25s51.5-30.85,94.04-43.14Z"/><path class="cls-2" d="M537.25,907.14s.95,36.35-32.25,31.8c0,0-34.74-6.3-49.21,11.54,0,0-51.83,81.76-107.91,80.82,0,0,35,24.21,76.11,4.05,0,0,24.04-35.3,57.36-64.85,0,0,49.62,6.26,76.94-30.93,0,0-33.39-2.35-11.86-30.91l-9.18-1.51Z"/><path class="cls-3" d="M115.75,1020.81s-69.65,12.18-87.38,10.78c0,0,5.61,21.62,23.37,30.4l27.31-3.08-26.12,12.33s11.89,20.91,30.94,21.1l29.47-12.69s-12.06,15.98-29.76,25.3c0,0,10.85,12.85,20.27,13.55,0,0,22.11-10.43,34.95-20.37,0,0-11.64,18.27-28.88,28.4l19.62,10.86s24.44-19.52,35.62-31.39c0,0-5.61,14.96-28.73,35.52l18.89,9.29,29.88-29.16-20.04,32.14s14.51,7.31,19.75,6.09l22.72-28.44s-14.3,29.9-13.89,29.66,14.52-1.71,14.52-1.71c0,0,11.16-24.98,44.09-45.57,0,0-28.32,12.78-25.03-14.5,0,0-25.45,17.07-19.04-9.63,0,0-23.2,13.4-19-8.86,0,0-25.64,11.23-19.48-11.76,0,0-27.66,8.43-22.15-17.75,0,0-25.73,9.7-16.89-14.84,0,0-25.95,5.2-15-15.67Z"/><path class="cls-7" d="M12.2,952.42s50.06,41.7,73.68,45.52c0,0-41.08-7.61-59.72-20.65,0,0-15.36-13.54-13.96-24.86Z"/><path class="cls-7" d="M26.15,1007.83s42.87,15.51,66.87,14.15c0,0-31.38,9.19-56.98,1.96,0,0-11.4-10.47-9.89-16.1Z"/><path class="cls-7" d="M162.69,898.78s5.71,31.87,71.74,67.92c0,0,28.58,6.9,38.69,29.23,0,0,32,33.22,59.06,36.11,0,0-20.79,4.07-25.12,6.18,0,0-25.19,8.59-28.89,8.35l-23.25-15.53s-77.77-31.65-94.82-51.56l32.37-1.64-33.74-8.29s-10.57-19.68-7.05-32.82l41.96,17.03s-25.65-19.7-29.69-28.07c0,0-7.22-15.93-1.26-26.91Z"/><path class="cls-9" d="M276.1,1195.87s-25.04-1.16-62.24,16.89l-44.71,20.86-7.03,1.01s9.95,20.54,67.8-7.91c0,0,38.46-19.16,46.18-30.85Z"/><path class="cls-9" d="M209.64,1213.73s-43.49,13.92-53.88,9.41c0,0,1.48,11.16,13.39,10.48,0,0,36.85-19.15,40.49-19.89Z"/><path class="cls-7" d="M417.01,1041.37l-38.7,54.92s-38.95,84.84-114.1,98.45l9.99,3.34s41.66,1.17,84.98-46.96c0,0,20.94-29.26,26.52-51.74l31.31-58.01Z"/><polygon class="cls-7" points="242.17 1122 254.71 1124.91 229.35 1135 242.17 1122"/><path class="cls-7" d="M209.56,1160.79l-4.78,8.71-19.73-2.62s-45.19-7.89-68.23-2.29c0,0-4.1-9.54,38.29-11.95l29.79,7.25,18.83-21.31-10.01,22.53,15.83-.32Z"/><path class="cls-7" d="M317.25,1034.57s-23.74,14.76-9.02,27.42c0,0-18.66-6.68-30.06-15.43l18.95-5.65,20.14-6.34Z"/><path class="cls-16" d="M549.41,906.98s100.45-21.27,114.62-11.13"/><path class="cls-15" d="M661.04,896.86s-54.96,9.86-99.39,38.07"/><path class="cls-16" d="M521.71,900.42c-4.57-2.47-20.21-9.26-37.84,1.6,0,0-16.88,9.85-19.92,32.32,0,0-53.14,94.49-114.56,96.52"/><path class="cls-14" d="M548.52,906.9s-15.24-2.95-24.5-5.43"/><path class="cls-14" d="M560.87,936.58s-14.38,21.06-37.14,27.95c0,0-22.16,6.97-40.92,5.69"/><path class="cls-14" d="M130.09,975.76c25.51-2.8,43.29,13.27,43.29,13.27,32.11,21.45,59.82,34.22,82.32,41.75,0,0,39.76,31.99,56.38,31.91"/><path class="cls-16" d="M130.09,975.76s-79.01-18.73-119.66-38.97"/><path class="cls-15" d="M8.13,937.21s.17,32.48,23.12,43.04c0,0,37.59,17.53,56.55,19.31"/><path class="cls-15" d="M83.71,999.23s-49.94-8.12-66.03-13.71c0,0,4.01,27.04,19.09,38.69,0,0,31.35,3.77,56.07,0"/><path class="cls-15" d="M92.38,1026.52s-40.59,4.8-64.84,4.81c0,0,5.78,22.68,24.5,30.26,0,0,33.96-.49,62.71-15.83"/><path class="cls-14" d="M347.88,1031.3c-17.92-10.62-43.18-27.86-68.47-58,0,0-10.2-16.58-30.74-20.2"/><path class="cls-16" d="M248.68,953.1s-57.35-32.57-84.45-57.6"/><path class="cls-15" d="M162.35,895.31s-7.26,25.37,8.24,38.82c0,0,25.33,22.22,39.71,27.92"/><path class="cls-15" d="M201.32,958.06s-38.41-14.59-50.31-21.67c0,0-1.22,22.17,8.89,33.9,0,0,24.34,8.11,44.62,9.13"/><path class="cls-15" d="M195.07,1002.38c7.03-1.22,14.6-3.17,21.9-6.22"/><path class="cls-15" d="M200.34,978.9s-21.73.51-40.41-.27"/><path class="cls-15" d="M114.06,1047.45s-38.87,16.39-62.05,23.51c0,0,12.18,19.98,32.3,21.74,0,0,32.32-10.43,55.3-33.54"/><path class="cls-15" d="M137.59,1060.89s-38.42,36.22-54.97,44.49c0,0,12.14,11.96,21.26,13.14,0,0,33.84-15.64,53.94-37.49"/><path class="cls-15" d="M157.95,1081.71s-33.56,37.43-49.03,45.16c0,0,12.79,9.19,21.32,10.3,0,0,28.63-24.41,47.42-44.84"/><path class="cls-15" d="M177.86,1092.87s-27.97,40.95-42.32,49.23c0,0,12.77,8.06,20.98,8.62,0,0,24.68-25.08,41.47-45.7"/><path class="cls-15" d="M197.94,1105.33c-5.69,9.64-23.6,40.57-34.19,48.26,0,0,13.53,6.69,21.77,6.4,0,0,16.84-21.46,31.39-43.7"/><path class="cls-2" d="M518.67,918.5c.96,4.05,4.05,6.77,6.9,6.1,2.85-.68,4.38-4.51,3.42-8.55-.96-4.04-4.05-6.77-6.9-6.09-2.85.68-4.38,4.51-3.42,8.55Z"/><path class="cls-14" d="M482.42,970.11s-41.87,35.32-75.79,92.91c0,0-17.21,28.77-22.27,40.16,0,0-17.99,79.67-108.36,95.35,0,0-49.18,42.14-102.52,42.27"/><path class="cls-13" d="M334,1033.36s-12.06-.97-22.44,3.04c0,0-24.97,9.65-34.21,9.44"/><path class="cls-15" d="M216.77,1116.43s-17.44,35.81-24,45.18c0,0,10.05-.22,16.69-1.85,0,0,17.17-28.67,33.01-38.21"/><path class="cls-13" d="M255.69,1125.09s-19.77,7.23-27.55,11.72"/><path class="cls-13" d="M267.18,1195.17s-19.24,4.23-32.29,9.12"/><path class="cls-13" d="M219.87,1210.32s-35.34,15.51-50.07,22.96"/><path class="cls-14" d="M180.46,1172.06c-8,9.36-21.65,24.33-24.7,37.59"/><path class="cls-15" d="M156.19,1211.78s-8.91,18.23,11.6,21.46"/><path class="cls-15" d="M162.6,1233.86s1.06,7.32,11.11,7.34"/><path class="cls-14" d="M164.04,1155.29s-23.75-3.35-37.32,1.32c0,0-8.59,2.98-12.32,7.51,0,0-16.75,8.09-21.87,15.01,0,0-34.84,22.1-45.89,48.31"/><path class="cls-14" d="M184.97,1168.19s-88.59,16.24-136.77,57.15"/><path class="cls-12" d="M91.42,1181.35s28.96-12.36,46.39-11.71"/><path class="cls-12" d="M111.39,1167.31s17.88-7.18,34.99-4.79"/><path class="cls-15" d="M155.96,1207.95s-39.64,25.12-59.24,35.84c0,0-38.65,26.54-48.76,32.7l-12.96-1.62-1.23,6.89-28.35,25.8s-3.53,14.72-2.49,30.05c0,0,21.63-30.69,45.53-50.67,0,0,39.54-30.63,107.22-57.03"/><path class="cls-15" d="M164.71,1239.33s-70.35,23.5-104.26,50.3c0,0-26.42,25.8-38.06,46.18,0,0-.6-18.51,4.6-26.39"/><path class="cls-6" d="M173.47,792.87c51.42-.12,99.81-41.03,100.3-41.44.47-.4,1.04-.67,1.65-.77,86.94-15.09,105.42-91.95,105.6-92.73.05-.22.12-.43.21-.63,5.09-11.44,21.75-39.34,22.45-40.51,33.83-57.44,76.12-93.44,76.54-93.79.83-.7,1.88-.89,2.87-.7,17.88,1.22,39.42-5.47,39.67-5.55,21.28-6.44,35.16-26.4,35.3-26.6.33-.48.78-.81,1.26-1.06.21-.38.49-.72.88-.97,31.06-19.73,67.56-30.62,86.84-35.43-22.77.27-65.69,7.26-96.75,13.83-1.34.28-2.65-.12-3.6-.97-3.76-.75-15.65-3.14-23.54-5.26-.25-.07-.45-.22-.67-.33-.89.16-1.84.05-2.71-.41-3.92-2.11-17.91-8.27-33.79,1.52-.62.37-15.21,9.25-17.93,29.32-.07.52-.24,1.02-.49,1.47-1.74,3.09-34.61,60.77-79.14,86.48-12.21,7.05-25.31,11.7-38.88,12.15-.55.02-1.08-.08-1.57-.26-.62.01-1.25-.13-1.82-.47-17.12-10.15-42.95-27.29-69.35-58.75-.1-.12-.2-.26-.29-.4-.09-.15-9.05-14.19-26.38-18.17-1.1.41-2.36.38-3.47-.25-2.28-1.3-54.67-31.15-82.6-55.81-1.14,7.59-1.77,22.39,8.37,31.18.25.22,25.13,21.97,38.91,27.44,1.41.56,2.1,2.16,1.54,3.57-.24.6-.66,1.06-1.18,1.36-.7.41-1.58.5-2.39.18-2.34-.93-4.94-2.26-7.65-3.85-.43.05-.86.04-1.29-.13-1.42-.54-31.88-12.13-46.59-19.61.22,6.63,1.51,19.14,7.75,26.91,3.72,1.19,20.92,6.47,37.14,8.26.99-.02,1.61-.03,1.64-.03.47-.01.89.12,1.28.32,1.04.09,2.07.16,3.09.21,1.52.08,2.68,1.37,2.61,2.88-.05.97-.59,1.79-1.37,2.24-.44.26-.96.39-1.51.36-1.95-.1-3.94-.28-5.94-.49-4.63.08-16.81.24-29.37-.02,3.5,2.18,5.73,4.04,6.42,4.64,6.97,4.65,13.89,9,20.77,13.04,7.14-1.35,13.77-3.25,19.66-5.72,1.4-.59,3.01.07,3.6,1.47.54,1.29.02,2.76-1.16,3.44-.1.06-.21.11-.32.15-4.51,1.89-9.42,3.45-14.62,4.72,18.24,10.22,36.11,18.33,53.37,24.1.38.13.75.33,1.06.58,4.54,3.66,12.63,9.77,21.42,15.61,9.9-.89,31.33-9.14,31.56-9.23,10.69-4.13,22.84-3.21,23.35-3.17,1.13.09,1.98,1.08,1.89,2.22-.06.7-.46,1.3-1.02,1.62-.35.2-.76.3-1.19.27-.11,0-11.74-.88-21.53,2.91-.83.32-16.73,6.43-27.9,8.72,10.57,6.67,21.36,12.24,27.64,12.21,1.9,0,3.44,1.52,3.45,3.42,0,1.28-.69,2.4-1.72,2.99-.5.29-1.08.46-1.7.46-16.8.08-52.1-27.52-58.06-32.29-26.47-8.93-54.24-23.04-82.55-41.95-.14-.09-.27-.19-.39-.3-.16-.15-16.05-14.07-38.52-12.55-.14.1-.26.21-.41.29-.88.51-1.95.69-3.01.44-3.18-.76-76.72-18.31-117.92-38.02,1.01,8.94,5.06,28.59,21.2,36.01.37.17,37.37,17.35,55.65,19.07,1.51.14,2.62,1.48,2.48,2.99-.09.92-.62,1.69-1.37,2.12-.48.27-1.04.41-1.63.36-1.01-.09-2.07-.24-3.17-.41-.35.09-.73.12-1.12.05-1.88-.3-42.86-7-61.99-12.43,1.77,7.75,6.5,23.8,16.59,32.06,4.92.54,32.62,3.27,54.56-.07,1.5-.23,2.9.8,3.13,2.3.12.77-.12,1.49-.55,2.06.03.11.09.21.11.33.18,1.51-.91,2.87-2.41,3.05-.39.05-37.02,4.35-61.38,4.79,2.32,6.23,8.55,19.36,21.23,24.78,4.47-.15,35.07-1.7,60.91-15.49,1.34-.71,3-.21,3.72,1.13.56,1.04.35,2.26-.39,3.09-.04,1.03-.64,2-1.66,2.43-.37.16-35.44,14.91-58.71,22.47,4.05,5.28,13.86,16,27.57,17.46,3.7-1.27,26.25-9.46,45.68-25.43,3.65-3.33,5.96-5.5,6.05-5.59.18-.16.38-.25.58-.36.46-.44.93-.86,1.37-1.31,1.08-1.07,2.81-1.08,3.89,0,1.08,1.07,1.08,2.81.01,3.89-2.59,2.6-5.29,5.02-8.04,7.31-10.57,9.68-32.67,29.35-46.22,37.51,4.16,3.6,10.94,8.68,16.19,9.75,5.06-2.44,34.45-17.08,52.32-36.5,1.03-1.12,2.77-1.19,3.88-.16.58.53.86,1.25.88,1.98.24.87.09,1.83-.56,2.56-1.28,1.42-29.22,32.49-45.91,43.47,4.26,2.69,10.58,6.2,15.35,7.23,5.16-4.45,29.69-25.81,46.21-43.78,1.03-1.13,2.77-1.19,3.88-.16.41.38.63.85.75,1.35.43.86.43,1.91-.15,2.77-1.06,1.56-24.32,35.47-39.49,47.48,4.19,2.3,10.31,5.22,14.86,5.94,4.66-4.78,25.68-26.51,40.36-44.55.96-1.18,2.69-1.35,3.87-.4.81.66,1.11,1.68.93,2.64,0,.08,0,.16-.02.25,0,.01,0,.02-.01.03-.06.31-.15.62-.32.91l-.9,1.53c-9.67,16.42-21.53,35.66-30.61,44.6,4.4,1.85,10.78,4.12,15.39,4.37,3.56-4.59,17.93-23.34,30.42-42.45.06-.09.15-.14.22-.23.08-.08.15-.17.24-.24.9-.84,2.27-1.03,3.34-.33,1.27.83,1.63,2.53.8,3.81-.04.06-.08.11-.11.17-1.47,3.01-13.78,28.16-21.16,40.64,2.96-.22,6.68-.6,9.8-1.26,3.28-5.3,18.61-29.28,33.33-38.15,1.23-.72,2.99-.36,3.77.94.78,1.3.36,2.99-.94,3.77-3.01,1.82-6.09,4.39-9.1,7.34,8.73-3.89,19.59-7.87,20.19-8.09,1.07-.39,2.25.16,2.65,1.23.35.96-.05,2-.91,2.49-.1.06-.21.11-.32.15-.2.07-19.69,7.22-27.23,11.57-.42.24-.89.29-1.33.22-8.95,10.64-15.9,22.17-16.01,22.35-.24.4-.58.74-.98.97-.22.13-.46.22-.72.29-6.85,1.69-16.87,1.92-17.29,1.93-1.03.02-1.99-.54-2.48-1.45-.49-.91-.43-2.02.17-2.87,1.46-2.09,3.51-5.59,5.78-9.71-5.09,6.83-8.56,11.26-8.63,11.36-.22.28-.49.51-.79.69-.39.22-.82.35-1.28.36-6.08.21-14.46-2.9-19.28-4.95-.73.68-1.71,1.06-2.78.91-.23-.03-23.08-3.18-35.71,1.16-1.25.44-3.88,1.53-6.34,2.97,6.79-1.59,15.97-2.93,25.06-1.66.75.1,1.28.8,1.17,1.55-.06.44-.32.8-.67,1-.26.15-.56.21-.88.17-11.86-1.66-24.22,1.44-30.35,3.35-3.14,1.52-10.14,5.27-15.34,9.12,10.08-3.62,25.98-8.52,37.37-8.09.76.03,1.35.66,1.32,1.42-.02.49-.29.91-.69,1.14-.22.13-.47.19-.74.18-13.61-.5-34.76,7.22-42.67,10.33-.22.26-.45.51-.74.69-.26.16-19.95,12.79-33.93,29.84,49.31-33.07,120.61-46.44,123.92-47.05,1.87-.34,3.65.89,4,2.76.27,1.47-.44,2.89-1.66,3.6-.33.19-.7.33-1.1.41-.07.01-.7.13-1.72.34.04.84-.21,1.69-.8,2.38l-2.1,2.45c-7.67,8.9-19.26,22.35-21.86,33.69-.05.23-.19.42-.29.63.18.62.15,1.31-.15,1.94-.03.07-3.22,6.87-.63,11.84,1.54,2.96,4.97,4.88,10.19,5.7.49.08.9.31,1.26.6,14.96-7.5,49.21-22.55,49.56-22.7,1.04-.46,2.26.02,2.72,1.06.43.97.04,2.09-.85,2.61-.06.04-.13.07-.2.1-.35.15-35.46,15.57-49.97,22.91-.38.2-.79.22-1.19.17-.13.11-.23.26-.37.34-.53.3-1.15.43-1.8.33-.3-.05-.57-.12-.86-.17.85,1,2.29,2.03,4.73,2.46.6-.53,1.37-.88,2.23-.88ZM232.96,760.51c-.4-1.07.17-2.26,1.21-2.65,13.03-4.88,31.77-9.03,32.56-9.2,1.11-.24,2.21.46,2.46,1.57.2.9-.22,1.79-.98,2.23-.18.1-.37.18-.59.23-.19.04-19.25,4.26-32.01,9.04-1.07.4-2.25-.14-2.65-1.21Z"/><path class="cls-5" d="M655.08,452.41s-33.6-10.91-108.02,10.92c0,0-22.61,25.83,8.03,31.98l6.33-5.52s24.26-17.48,93.66-37.38Z"/><path class="cls-8" d="M156.31,763.38s-5.1,15.9,1.8,21.44c0,0-81.4,33.51-107.04,55.98,0,0-42.79,40.84-47.52,50.97,0,0-1.45-19,1.91-29.66l28.44-25.41.85-6.31,13.64,1.64,47.15-31.45,60.76-37.2Z"/><path class="cls-2" d="M158.79,784.16l5.93,9.8s-85.1,31.68-103.93,51.28c0,0-36.79,36.58-38.06,44.45,0,0-.59-18.43,3.94-26.6,0,0,26.39-36.05,132.12-78.93Z"/><path class="cls-11" d="M467.41,485.56c8.01-14.37,24.61-14.16,24.61-14.16,28.2-1.8,28.55-14.05,28.55-14.05-11.15-7.89-23.25-5.77-23.25-5.77-18.25,3.95-26.77,15.89-30.73,27l.81,6.99Z"/><path class="cls-4" d="M5.21,875.78s8.93-9.43,13.65-16.37c0,0-10.4,10.57-13.18,12.82l-.47,3.54Z"/><path class="cls-4" d="M4.55,881.94s9.23-9.84,13.76-16.91c0,0-10.61,11.19-13.32,13.52l-.44,3.38Z"/><polygon class="cls-1" points="23.87 875.51 35.55 863.14 22.59 879.98 23.87 875.51"/><path class="cls-7" d="M161.84,573.58s-29.29,11.43-42.27,11.93c0,0,8.12,12.16,42.27-11.93Z"/><path class="cls-7" d="M174.01,582.94s-26.33,17.17-38.94,20.31c0,0,10.43,10.25,38.94-20.31Z"/><path class="cls-7" d="M194.33,597.96s-25,19.07-37.34,23.13c0,0,11.16,9.45,37.34-23.13Z"/><path class="cls-7" d="M209.58,606.93s-22.36,22.11-34.07,27.72c0,0,12.28,7.95,34.07-27.72Z"/><path class="cls-7" d="M226.77,615.31s-21.2,23.22-32.61,29.42c0,0,12.67,7.31,32.61-29.42Z"/><path class="cls-7" d="M243.17,622.7s-18.43,25.48-29.06,32.93c0,0,13.41,5.83,29.06-32.93Z"/><path class="cls-7" d="M267.54,633.51s-15.35,27.44-25.06,36.08c0,0,14,4.23,25.06-36.08Z"/><path class="cls-10" d="M647.59,452.55s-64.22,6.1-105.56,38.88l11.52,4.25s51.5-30.85,94.04-43.14Z"/><path class="cls-2" d="M537.25,462.64s.95,36.35-32.25,31.8c0,0-34.74-6.3-49.21,11.54,0,0-51.83,81.76-107.91,80.82,0,0,35,24.21,76.11,4.05,0,0,24.04-35.3,57.36-64.85,0,0,49.62,6.26,76.94-30.93,0,0-33.39-2.35-11.86-30.91l-9.18-1.51Z"/><path class="cls-3" d="M115.75,576.32s-69.65,12.18-87.38,10.78c0,0,5.61,21.62,23.37,30.4l27.31-3.08-26.12,12.33s11.89,20.91,30.94,21.1l29.47-12.69s-12.06,15.98-29.76,25.3c0,0,10.85,12.85,20.27,13.55,0,0,22.11-10.43,34.95-20.37,0,0-11.64,18.27-28.88,28.4l19.62,10.86s24.44-19.52,35.62-31.39c0,0-5.61,14.96-28.73,35.52l18.89,9.29,29.88-29.16-20.04,32.14s14.51,7.31,19.75,6.09l22.72-28.44s-14.3,29.9-13.89,29.66,14.52-1.71,14.52-1.71c0,0,11.16-24.98,44.09-45.57,0,0-28.32,12.78-25.03-14.5,0,0-25.45,17.07-19.04-9.63,0,0-23.2,13.4-19-8.86,0,0-25.64,11.23-19.48-11.76,0,0-27.66,8.43-22.15-17.75,0,0-25.73,9.7-16.89-14.84,0,0-25.95,5.2-15-15.67Z"/><path class="cls-7" d="M12.2,507.92s50.06,41.7,73.68,45.52c0,0-41.08-7.61-59.72-20.65,0,0-15.36-13.54-13.96-24.86Z"/><path class="cls-7" d="M26.15,563.33s42.87,15.51,66.87,14.15c0,0-31.38,9.19-56.98,1.96,0,0-11.4-10.47-9.89-16.1Z"/><path class="cls-7" d="M162.69,454.28s5.71,31.87,71.74,67.92c0,0,28.58,6.9,38.69,29.23,0,0,32,33.22,59.06,36.11,0,0-20.79,4.07-25.12,6.18,0,0-25.19,8.59-28.89,8.35l-23.25-15.53s-77.77-31.65-94.82-51.56l32.37-1.64-33.74-8.29s-10.57-19.68-7.05-32.82l41.96,17.03s-25.65-19.7-29.69-28.07c0,0-7.22-15.93-1.26-26.91Z"/><path class="cls-9" d="M276.1,751.37s-25.04-1.16-62.24,16.89l-44.71,20.86-7.03,1.01s9.95,20.54,67.8-7.91c0,0,38.46-19.16,46.18-30.85Z"/><path class="cls-9" d="M209.64,769.23s-43.49,13.92-53.88,9.41c0,0,1.48,11.16,13.39,10.48,0,0,36.85-19.15,40.49-19.89Z"/><path class="cls-7" d="M417.01,596.88l-38.7,54.92s-38.95,84.84-114.1,98.45l9.99,3.34s41.66,1.17,84.98-46.96c0,0,20.94-29.26,26.52-51.74l31.31-58.01Z"/><polygon class="cls-7" points="242.17 677.5 254.71 680.42 229.35 690.5 242.17 677.5"/><path class="cls-7" d="M209.56,716.29l-4.78,8.71-19.73-2.62s-45.19-7.89-68.23-2.29c0,0-4.1-9.54,38.29-11.95l29.79,7.25,18.83-21.31-10.01,22.53,15.83-.32Z"/><path class="cls-7" d="M317.25,590.08s-23.74,14.76-9.02,27.42c0,0-18.66-6.68-30.06-15.43l18.95-5.65,20.14-6.34Z"/><path class="cls-16" d="M549.41,462.49s100.45-21.27,114.62-11.13"/><path class="cls-15" d="M661.04,452.36s-54.96,9.86-99.39,38.07"/><path class="cls-16" d="M521.71,455.92c-4.57-2.47-20.21-9.26-37.84,1.6,0,0-16.88,9.85-19.92,32.32,0,0-53.14,94.49-114.56,96.52"/><path class="cls-14" d="M548.52,462.41s-15.24-2.95-24.5-5.43"/><path class="cls-14" d="M560.87,492.09s-14.38,21.06-37.14,27.95c0,0-22.16,6.97-40.92,5.69"/><path class="cls-14" d="M130.09,531.26c25.51-2.8,43.29,13.27,43.29,13.27,32.11,21.45,59.82,34.22,82.32,41.75,0,0,39.76,31.99,56.38,31.91"/><path class="cls-16" d="M130.09,531.26s-79.01-18.73-119.66-38.97"/><path class="cls-15" d="M8.13,492.72s.17,32.48,23.12,43.04c0,0,37.59,17.53,56.55,19.31"/><path class="cls-15" d="M83.71,554.73s-49.94-8.12-66.03-13.71c0,0,4.01,27.04,19.09,38.69,0,0,31.35,3.77,56.07,0"/><path class="cls-15" d="M92.38,582.03s-40.59,4.8-64.84,4.81c0,0,5.78,22.68,24.5,30.26,0,0,33.96-.49,62.71-15.83"/><path class="cls-14" d="M347.88,586.8c-17.92-10.62-43.18-27.86-68.47-58,0,0-10.2-16.58-30.74-20.2"/><path class="cls-16" d="M248.68,508.61s-57.35-32.57-84.45-57.6"/><path class="cls-15" d="M162.35,450.82s-7.26,25.37,8.24,38.82c0,0,25.33,22.22,39.71,27.92"/><path class="cls-15" d="M201.32,513.57s-38.41-14.59-50.31-21.67c0,0-1.22,22.17,8.89,33.9,0,0,24.34,8.11,44.62,9.13"/><path class="cls-15" d="M195.07,557.89c7.03-1.22,14.6-3.17,21.9-6.22"/><path class="cls-15" d="M200.34,534.41s-21.73.51-40.41-.27"/><path class="cls-15" d="M114.06,602.96s-38.87,16.39-62.05,23.51c0,0,12.18,19.98,32.3,21.74,0,0,32.32-10.43,55.3-33.54"/><path class="cls-15" d="M137.59,616.4s-38.42,36.22-54.97,44.49c0,0,12.14,11.96,21.26,13.14,0,0,33.84-15.64,53.94-37.49"/><path class="cls-15" d="M157.95,637.21s-33.56,37.43-49.03,45.16c0,0,12.79,9.19,21.32,10.3,0,0,28.63-24.41,47.42-44.84"/><path class="cls-15" d="M177.86,648.37s-27.97,40.95-42.32,49.23c0,0,12.77,8.06,20.98,8.62,0,0,24.68-25.08,41.47-45.7"/><path class="cls-15" d="M197.94,660.83c-5.69,9.64-23.6,40.57-34.19,48.26,0,0,13.53,6.69,21.77,6.4,0,0,16.84-21.46,31.39-43.7"/><path class="cls-2" d="M518.67,474c.96,4.05,4.05,6.77,6.9,6.1,2.85-.68,4.38-4.51,3.42-8.55-.96-4.04-4.05-6.77-6.9-6.09-2.85.68-4.38,4.51-3.42,8.55Z"/><path class="cls-14" d="M482.42,525.62s-41.87,35.32-75.79,92.91c0,0-17.21,28.77-22.27,40.16,0,0-17.99,79.67-108.36,95.35,0,0-49.18,42.14-102.52,42.27"/><path class="cls-13" d="M334,588.87s-12.06-.97-22.44,3.04c0,0-24.97,9.65-34.21,9.44"/><path class="cls-15" d="M216.77,671.94s-17.44,35.81-24,45.18c0,0,10.05-.22,16.69-1.85,0,0,17.17-28.67,33.01-38.21"/><path class="cls-13" d="M255.69,680.59s-19.77,7.23-27.55,11.72"/><path class="cls-13" d="M267.18,750.67s-19.24,4.23-32.29,9.12"/><path class="cls-13" d="M219.87,765.82s-35.34,15.51-50.07,22.96"/><path class="cls-14" d="M180.46,727.56c-8,9.36-21.65,24.33-24.7,37.59"/><path class="cls-15" d="M156.19,767.29s-8.91,18.23,11.6,21.46"/><path class="cls-15" d="M162.6,789.37s1.06,7.32,11.11,7.34"/><path class="cls-14" d="M164.04,710.8s-23.75-3.35-37.32,1.32c0,0-8.59,2.98-12.32,7.51,0,0-16.75,8.09-21.87,15.01,0,0-34.84,22.1-45.89,48.31"/><path class="cls-14" d="M184.97,723.7s-88.59,16.24-136.77,57.15"/><path class="cls-12" d="M91.42,736.85s28.96-12.36,46.39-11.71"/><path class="cls-12" d="M111.39,722.81s17.88-7.18,34.99-4.79"/><path class="cls-15" d="M155.96,763.45s-39.64,25.12-59.24,35.84c0,0-38.65,26.54-48.76,32.7l-12.96-1.62-1.23,6.89-28.35,25.8s-3.53,14.72-2.49,30.05c0,0,21.63-30.69,45.53-50.67,0,0,39.54-30.63,107.22-57.03"/><path class="cls-15" d="M164.71,794.84s-70.35,23.5-104.26,50.3c0,0-26.42,25.8-38.06,46.18,0,0-.6-18.51,4.6-26.39"/><path class="cls-6" d="M173.47,348.38c51.42-.12,99.81-41.03,100.3-41.44.47-.4,1.04-.67,1.65-.77,86.94-15.09,105.42-91.95,105.6-92.73.05-.22.12-.43.21-.63,5.09-11.44,21.75-39.34,22.45-40.51,33.83-57.44,76.12-93.44,76.54-93.79.83-.7,1.88-.89,2.87-.7,17.88,1.22,39.42-5.47,39.67-5.55,21.28-6.44,35.16-26.4,35.3-26.6.33-.48.78-.81,1.26-1.06.21-.38.49-.72.88-.97,31.06-19.73,67.56-30.62,86.84-35.43-22.77.27-65.69,7.26-96.75,13.83-1.34.28-2.65-.12-3.6-.97-3.76-.75-15.65-3.14-23.54-5.26-.25-.07-.45-.22-.67-.33-.89.16-1.84.05-2.71-.41-3.92-2.11-17.91-8.27-33.79,1.52-.62.37-15.21,9.25-17.93,29.32-.07.52-.24,1.02-.49,1.47-1.74,3.09-34.61,60.77-79.14,86.48-12.21,7.05-25.31,11.7-38.88,12.15-.55.02-1.08-.08-1.57-.26-.62.01-1.25-.13-1.82-.47-17.12-10.15-42.95-27.29-69.35-58.75-.1-.12-.2-.26-.29-.4-.09-.15-9.05-14.19-26.38-18.17-1.1.41-2.36.38-3.47-.25-2.28-1.3-54.67-31.15-82.6-55.81-1.14,7.59-1.77,22.39,8.37,31.18.25.22,25.13,21.97,38.91,27.44,1.41.56,2.1,2.16,1.54,3.57-.24.6-.66,1.06-1.18,1.36-.7.41-1.58.5-2.39.18-2.34-.93-4.94-2.26-7.65-3.85-.43.05-.86.04-1.29-.13-1.42-.54-31.88-12.13-46.59-19.61.22,6.63,1.51,19.14,7.75,26.91,3.72,1.19,20.92,6.47,37.14,8.26.99-.02,1.61-.03,1.64-.03.47-.01.89.12,1.28.32,1.04.09,2.07.16,3.09.21,1.52.08,2.68,1.37,2.61,2.88-.05.97-.59,1.79-1.37,2.24-.44.26-.96.39-1.51.36-1.95-.1-3.94-.28-5.94-.49-4.63.08-16.81.24-29.37-.02,3.5,2.18,5.73,4.04,6.42,4.64,6.97,4.65,13.89,9,20.77,13.04,7.14-1.35,13.77-3.25,19.66-5.72,1.4-.59,3.01.07,3.6,1.47.54,1.29.02,2.76-1.16,3.44-.1.06-.21.11-.32.15-4.51,1.89-9.42,3.45-14.62,4.72,18.24,10.22,36.11,18.33,53.37,24.1.38.13.75.33,1.06.58,4.54,3.66,12.63,9.77,21.42,15.61,9.9-.89,31.33-9.14,31.56-9.23,10.69-4.13,22.84-3.21,23.35-3.17,1.13.09,1.98,1.08,1.89,2.22-.06.7-.46,1.3-1.02,1.62-.35.2-.76.3-1.19.27-.11,0-11.74-.88-21.53,2.91-.83.32-16.73,6.43-27.9,8.72,10.57,6.67,21.36,12.24,27.64,12.21,1.9,0,3.44,1.52,3.45,3.42,0,1.28-.69,2.4-1.72,2.99-.5.29-1.08.46-1.7.46-16.8.08-52.1-27.52-58.06-32.29-26.47-8.93-54.24-23.04-82.55-41.95-.14-.09-.27-.19-.39-.3-.16-.15-16.05-14.07-38.52-12.55-.14.1-.26.21-.41.29-.88.51-1.95.69-3.01.44-3.18-.76-76.72-18.31-117.92-38.02,1.01,8.94,5.06,28.59,21.2,36.01.37.17,37.37,17.35,55.65,19.07,1.51.14,2.62,1.48,2.48,2.99-.09.92-.62,1.69-1.37,2.12-.48.27-1.04.41-1.63.36-1.01-.09-2.07-.24-3.17-.41-.35.09-.73.12-1.12.05-1.88-.3-42.86-7-61.99-12.43,1.77,7.75,6.5,23.8,16.59,32.06,4.92.54,32.62,3.27,54.56-.07,1.5-.23,2.9.8,3.13,2.3.12.77-.12,1.49-.55,2.06.03.11.09.21.11.33.18,1.51-.91,2.87-2.41,3.05-.39.05-37.02,4.35-61.38,4.79,2.32,6.23,8.55,19.36,21.23,24.78,4.47-.15,35.07-1.7,60.91-15.49,1.34-.71,3-.21,3.72,1.13.56,1.04.35,2.26-.39,3.09-.04,1.03-.64,2-1.66,2.43-.37.16-35.44,14.91-58.71,22.47,4.05,5.28,13.86,16,27.57,17.46,3.7-1.27,26.25-9.46,45.68-25.43,3.65-3.33,5.96-5.5,6.05-5.59.18-.16.38-.25.58-.36.46-.44.93-.86,1.37-1.31,1.08-1.07,2.81-1.08,3.89,0,1.08,1.07,1.08,2.81.01,3.89-2.59,2.6-5.29,5.02-8.04,7.31-10.57,9.68-32.67,29.35-46.22,37.51,4.16,3.6,10.94,8.68,16.19,9.75,5.06-2.44,34.45-17.08,52.32-36.5,1.03-1.12,2.77-1.19,3.88-.16.58.53.86,1.25.88,1.98.24.87.09,1.83-.56,2.56-1.28,1.42-29.22,32.49-45.91,43.47,4.26,2.69,10.58,6.2,15.35,7.23,5.16-4.45,29.69-25.81,46.21-43.78,1.03-1.13,2.77-1.19,3.88-.16.41.38.63.85.75,1.35.43.86.43,1.91-.15,2.77-1.06,1.56-24.32,35.47-39.49,47.48,4.19,2.3,10.31,5.22,14.86,5.94,4.66-4.78,25.68-26.51,40.36-44.55.96-1.18,2.69-1.35,3.87-.4.81.66,1.11,1.68.93,2.64,0,.08,0,.16-.02.25,0,.01,0,.02-.01.03-.06.31-.15.62-.32.91l-.9,1.53c-9.67,16.42-21.53,35.66-30.61,44.6,4.4,1.85,10.78,4.12,15.39,4.37,3.56-4.59,17.93-23.34,30.42-42.45.06-.09.15-.14.22-.23.08-.08.15-.17.24-.24.9-.84,2.27-1.03,3.34-.33,1.27.83,1.63,2.53.8,3.81-.04.06-.08.11-.11.17-1.47,3.01-13.78,28.16-21.16,40.64,2.96-.22,6.68-.6,9.8-1.26,3.28-5.3,18.61-29.28,33.33-38.15,1.23-.72,2.99-.36,3.77.94.78,1.3.36,2.99-.94,3.77-3.01,1.82-6.09,4.39-9.1,7.34,8.73-3.89,19.59-7.87,20.19-8.09,1.07-.39,2.25.16,2.65,1.23.35.96-.05,2-.91,2.49-.1.06-.21.11-.32.15-.2.07-19.69,7.22-27.23,11.57-.42.24-.89.29-1.33.22-8.95,10.64-15.9,22.17-16.01,22.35-.24.4-.58.74-.98.97-.22.13-.46.22-.72.29-6.85,1.69-16.87,1.92-17.29,1.93-1.03.02-1.99-.54-2.48-1.45-.49-.91-.43-2.02.17-2.87,1.46-2.09,3.51-5.59,5.78-9.71-5.09,6.83-8.56,11.26-8.63,11.36-.22.28-.49.51-.79.69-.39.22-.82.35-1.28.36-6.08.21-14.46-2.9-19.28-4.95-.73.68-1.71,1.06-2.78.91-.23-.03-23.08-3.18-35.71,1.16-1.25.44-3.88,1.53-6.34,2.97,6.79-1.59,15.97-2.93,25.06-1.66.75.1,1.28.8,1.17,1.55-.06.44-.32.8-.67,1-.26.15-.56.21-.88.17-11.86-1.66-24.22,1.44-30.35,3.35-3.14,1.52-10.14,5.27-15.34,9.12,10.08-3.62,25.98-8.52,37.37-8.09.76.03,1.35.66,1.32,1.42-.02.49-.29.91-.69,1.14-.22.13-.47.19-.74.18-13.61-.5-34.76,7.22-42.67,10.33-.22.26-.45.51-.74.69-.26.16-19.95,12.79-33.93,29.84,49.31-33.07,120.61-46.44,123.92-47.05,1.87-.34,3.65.89,4,2.76.27,1.47-.44,2.89-1.66,3.6-.33.19-.7.33-1.1.41-.07.01-.7.13-1.72.34.04.84-.21,1.69-.8,2.38l-2.1,2.45c-7.67,8.9-19.26,22.35-21.86,33.69-.05.23-.19.42-.29.63.18.62.15,1.31-.15,1.94-.03.07-3.22,6.87-.63,11.84,1.54,2.96,4.97,4.88,10.19,5.7.49.08.9.31,1.26.6,14.96-7.5,49.21-22.55,49.56-22.7,1.04-.46,2.26.02,2.72,1.06.43.97.04,2.09-.85,2.61-.06.04-.13.07-.2.1-.35.15-35.46,15.57-49.97,22.91-.38.2-.79.22-1.19.17-.13.11-.23.26-.37.34-.53.3-1.15.43-1.8.33-.3-.05-.57-.12-.86-.17.85,1,2.29,2.03,4.73,2.46.6-.53,1.37-.88,2.23-.88ZM232.96,316.02c-.4-1.07.17-2.26,1.21-2.65,13.03-4.88,31.77-9.03,32.56-9.2,1.11-.24,2.21.46,2.46,1.57.2.9-.22,1.79-.98,2.23-.18.1-.37.18-.59.23-.19.04-19.25,4.26-32.01,9.04-1.07.4-2.25-.14-2.65-1.21Z"/><path class="cls-5" d="M655.08,7.92s-33.6-10.91-108.02,10.92c0,0-22.61,25.83,8.03,31.98l6.33-5.52s24.26-17.48,93.66-37.38Z"/><path class="cls-8" d="M156.31,318.88s-5.1,15.9,1.8,21.44c0,0-81.4,33.51-107.04,55.98,0,0-42.79,40.84-47.52,50.97,0,0-1.45-19,1.91-29.66l28.44-25.41.85-6.31,13.64,1.64,47.15-31.45,60.76-37.2Z"/><path class="cls-2" d="M158.79,339.66l5.93,9.8s-85.1,31.68-103.93,51.28c0,0-36.79,36.58-38.06,44.45,0,0-.59-18.43,3.94-26.6,0,0,26.39-36.05,132.12-78.93Z"/><path class="cls-11" d="M467.41,41.06c8.01-14.37,24.61-14.16,24.61-14.16,28.2-1.8,28.55-14.05,28.55-14.05-11.15-7.89-23.25-5.77-23.25-5.77-18.25,3.95-26.77,15.89-30.73,27l.81,6.99Z"/><path class="cls-4" d="M5.21,431.29s8.93-9.43,13.65-16.37c0,0-10.4,10.57-13.18,12.82l-.47,3.54Z"/><path class="cls-4" d="M4.55,437.45s9.23-9.84,13.76-16.91c0,0-10.61,11.19-13.32,13.52l-.44,3.38Z"/><polygon class="cls-1" points="23.87 431.02 35.55 418.64 22.59 435.49 23.87 431.02"/><path class="cls-7" d="M161.84,129.08s-29.29,11.43-42.27,11.93c0,0,8.12,12.16,42.27-11.93Z"/><path class="cls-7" d="M174.01,138.45s-26.33,17.17-38.94,20.31c0,0,10.43,10.25,38.94-20.31Z"/><path class="cls-7" d="M194.33,153.46s-25,19.07-37.34,23.13c0,0,11.16,9.45,37.34-23.13Z"/><path class="cls-7" d="M209.58,162.43s-22.36,22.11-34.07,27.72c0,0,12.28,7.95,34.07-27.72Z"/><path class="cls-7" d="M226.77,170.82s-21.2,23.22-32.61,29.42c0,0,12.67,7.31,32.61-29.42Z"/><path class="cls-7" d="M243.17,178.2s-18.43,25.48-29.06,32.93c0,0,13.41,5.83,29.06-32.93Z"/><path class="cls-7" d="M267.54,189.01s-15.35,27.44-25.06,36.08c0,0,14,4.23,25.06-36.08Z"/><path class="cls-10" d="M647.59,8.05s-64.22,6.1-105.56,38.88l11.52,4.25s51.5-30.85,94.04-43.14Z"/><path class="cls-2" d="M537.25,18.15s.95,36.35-32.25,31.8c0,0-34.74-6.3-49.21,11.54,0,0-51.83,81.76-107.91,80.82,0,0,35,24.21,76.11,4.05,0,0,24.04-35.3,57.36-64.85,0,0,49.62,6.26,76.94-30.93,0,0-33.39-2.35-11.86-30.91l-9.18-1.51Z"/><path class="cls-3" d="M115.75,131.82s-69.65,12.18-87.38,10.78c0,0,5.61,21.62,23.37,30.4l27.31-3.08-26.12,12.33s11.89,20.91,30.94,21.1l29.47-12.69s-12.06,15.98-29.76,25.3c0,0,10.85,12.85,20.27,13.55,0,0,22.11-10.43,34.95-20.37,0,0-11.64,18.27-28.88,28.4l19.62,10.86s24.44-19.52,35.62-31.39c0,0-5.61,14.96-28.73,35.52l18.89,9.29,29.88-29.16-20.04,32.14s14.51,7.31,19.75,6.09l22.72-28.44s-14.3,29.9-13.89,29.66,14.52-1.71,14.52-1.71c0,0,11.16-24.98,44.09-45.57,0,0-28.32,12.78-25.03-14.5,0,0-25.45,17.07-19.04-9.63,0,0-23.2,13.4-19-8.86,0,0-25.64,11.23-19.48-11.76,0,0-27.66,8.43-22.15-17.75,0,0-25.73,9.7-16.89-14.84,0,0-25.95,5.2-15-15.67Z"/><path class="cls-7" d="M12.2,63.43s50.06,41.7,73.68,45.52c0,0-41.08-7.61-59.72-20.65,0,0-15.36-13.54-13.96-24.86Z"/><path class="cls-7" d="M26.15,118.84s42.87,15.51,66.87,14.15c0,0-31.38,9.19-56.98,1.96,0,0-11.4-10.47-9.89-16.1Z"/><path class="cls-7" d="M162.69,9.79s5.71,31.87,71.74,67.92c0,0,28.58,6.9,38.69,29.23,0,0,32,33.22,59.06,36.11,0,0-20.79,4.07-25.12,6.18,0,0-25.19,8.59-28.89,8.35l-23.25-15.53s-77.77-31.65-94.82-51.56l32.37-1.64-33.74-8.29s-10.57-19.68-7.05-32.82l41.96,17.03s-25.65-19.7-29.69-28.07c0,0-7.22-15.93-1.26-26.91Z"/><path class="cls-9" d="M276.1,306.88s-25.04-1.16-62.24,16.89l-44.71,20.86-7.03,1.01s9.95,20.54,67.8-7.91c0,0,38.46-19.16,46.18-30.85Z"/><path class="cls-9" d="M209.64,324.74s-43.49,13.92-53.88,9.41c0,0,1.48,11.16,13.39,10.48,0,0,36.85-19.15,40.49-19.89Z"/><path class="cls-7" d="M417.01,152.38l-38.7,54.92s-38.95,84.84-114.1,98.45l9.99,3.34s41.66,1.17,84.98-46.96c0,0,20.94-29.26,26.52-51.74l31.31-58.01Z"/><polygon class="cls-7" points="242.17 233.01 254.71 235.92 229.35 246.01 242.17 233.01"/><path class="cls-7" d="M209.56,271.8l-4.78,8.71-19.73-2.62s-45.19-7.89-68.23-2.29c0,0-4.1-9.54,38.29-11.95l29.79,7.25,18.83-21.31-10.01,22.53,15.83-.32Z"/><path class="cls-7" d="M317.25,145.58s-23.74,14.76-9.02,27.42c0,0-18.66-6.68-30.06-15.43l18.95-5.65,20.14-6.34Z"/><path class="cls-16" d="M549.41,17.99s100.45-21.27,114.62-11.13"/><path class="cls-15" d="M661.04,7.87s-54.96,9.86-99.39,38.07"/><path class="cls-16" d="M521.71,11.43c-4.57-2.47-20.21-9.26-37.84,1.6,0,0-16.88,9.85-19.92,32.32,0,0-53.14,94.49-114.56,96.52"/><path class="cls-14" d="M548.52,17.91s-15.24-2.95-24.5-5.43"/><path class="cls-14" d="M560.87,47.6s-14.38,21.06-37.14,27.95c0,0-22.16,6.97-40.92,5.69"/><path class="cls-14" d="M130.09,86.77c25.51-2.8,43.29,13.27,43.29,13.27,32.11,21.45,59.82,34.22,82.32,41.75,0,0,39.76,31.99,56.38,31.91"/><path class="cls-16" d="M130.09,86.77S51.07,68.04,10.43,47.8"/><path class="cls-15" d="M8.13,48.22s.17,32.48,23.12,43.04c0,0,37.59,17.53,56.55,19.31"/><path class="cls-15" d="M83.71,110.24s-49.94-8.12-66.03-13.71c0,0,4.01,27.04,19.09,38.69,0,0,31.35,3.77,56.07,0"/><path class="cls-15" d="M92.38,137.53s-40.59,4.8-64.84,4.81c0,0,5.78,22.68,24.5,30.26,0,0,33.96-.49,62.71-15.83"/><path class="cls-14" d="M347.88,142.31c-17.92-10.62-43.18-27.86-68.47-58,0,0-10.2-16.58-30.74-20.2"/><path class="cls-16" d="M248.68,64.11S191.33,31.54,164.23,6.51"/><path class="cls-15" d="M162.35,6.32s-7.26,25.37,8.24,38.82c0,0,25.33,22.22,39.71,27.92"/><path class="cls-15" d="M201.32,69.07s-38.41-14.59-50.31-21.67c0,0-1.22,22.17,8.89,33.9,0,0,24.34,8.11,44.62,9.13"/><path class="cls-15" d="M195.07,113.39c7.03-1.22,14.6-3.17,21.9-6.22"/><path class="cls-15" d="M200.34,89.91s-21.73.51-40.41-.27"/><path class="cls-15" d="M114.06,158.46s-38.87,16.39-62.05,23.51c0,0,12.18,19.98,32.3,21.74,0,0,32.32-10.43,55.3-33.54"/><path class="cls-15" d="M137.59,171.9s-38.42,36.22-54.97,44.49c0,0,12.14,11.96,21.26,13.14,0,0,33.84-15.64,53.94-37.49"/><path class="cls-15" d="M157.95,192.72s-33.56,37.43-49.03,45.16c0,0,12.79,9.19,21.32,10.3,0,0,28.63-24.41,47.42-44.84"/><path class="cls-15" d="M177.86,203.88s-27.97,40.95-42.32,49.23c0,0,12.77,8.06,20.98,8.62,0,0,24.68-25.08,41.47-45.7"/><path class="cls-15" d="M197.94,216.34c-5.69,9.64-23.6,40.57-34.19,48.26,0,0,13.53,6.69,21.77,6.4,0,0,16.84-21.46,31.39-43.7"/><path class="cls-2" d="M518.67,29.51c.96,4.05,4.05,6.77,6.9,6.1,2.85-.68,4.38-4.51,3.42-8.55-.96-4.04-4.05-6.77-6.9-6.09-2.85.68-4.38,4.51-3.42,8.55Z"/><path class="cls-14" d="M482.42,81.13s-41.87,35.32-75.79,92.91c0,0-17.21,28.77-22.27,40.16,0,0-17.99,79.67-108.36,95.35,0,0-49.18,42.14-102.52,42.27"/><path class="cls-13" d="M334,144.37s-12.06-.97-22.44,3.04c0,0-24.97,9.65-34.21,9.44"/><path class="cls-15" d="M216.77,227.44s-17.44,35.81-24,45.18c0,0,10.05-.22,16.69-1.85,0,0,17.17-28.67,33.01-38.21"/><path class="cls-13" d="M255.69,236.1s-19.77,7.23-27.55,11.72"/><path class="cls-13" d="M267.18,306.18s-19.24,4.23-32.29,9.12"/><path class="cls-13" d="M219.87,321.33s-35.34,15.51-50.07,22.96"/><path class="cls-14" d="M180.46,283.07c-8,9.36-21.65,24.33-24.7,37.59"/><path class="cls-15" d="M156.19,322.79s-8.91,18.23,11.6,21.46"/><path class="cls-15" d="M162.6,344.87s1.06,7.32,11.11,7.34"/><path class="cls-14" d="M164.04,266.3s-23.75-3.35-37.32,1.32c0,0-8.59,2.98-12.32,7.51,0,0-16.75,8.09-21.87,15.01,0,0-34.84,22.1-45.89,48.31"/><path class="cls-14" d="M184.97,279.2s-88.59,16.24-136.77,57.15"/><path class="cls-12" d="M91.42,292.36s28.96-12.36,46.39-11.71"/><path class="cls-12" d="M111.39,278.32s17.88-7.18,34.99-4.79"/><path class="cls-15" d="M155.96,318.96s-39.64,25.12-59.24,35.84c0,0-38.65,26.54-48.76,32.7l-12.96-1.62-1.23,6.89-28.35,25.8s-3.53,14.72-2.49,30.05c0,0,21.63-30.69,45.53-50.67,0,0,39.54-30.63,107.22-57.03"/><path class="cls-15" d="M164.71,350.34s-70.35,23.5-104.26,50.3c0,0-26.42,25.8-38.06,46.18,0,0-.6-18.51,4.6-26.39"/></svg>