<?xml version="1.0" encoding="UTF-8"?><svg id="_レイヤー_2" xmlns="http://www.w3.org/2000/svg" width="409.4" height="1209.58" viewBox="0 0 409.4 1209.58"><defs><style>.cls-1{fill:#333;stroke-width:0px;}</style></defs><g id="_レイヤー_1-2"><path class="cls-1" d="M288.4,125.2c3.8,5.6,14.6,18.8,22.8,18.8,2.4,0,4.8-1.2,6.8-4.8,6.2-11,10.6-33.2,10.6-39,0-9.8-5-17.2-12.4-20.6-5.6-2.6-15.4-5.8-21.4-5.8-3,0-5.6.6-7.6,2.2-8.4,19.4-23.8,57-26.6,63.6-4,9.6-5.8,13.8-9.6,19.2-3.8,5.2-14.2,15-18.4,15-1.4,0-2-1-2-2.6,0-2.4,5.2-17.2,6-20.4,1-4,2-6,5-8.8,2.8-2.8,6-5.4,9.2-10.2,9.4-13.8,29.8-63,34.6-76.4,2.8-8.2,4.4-14.6,5.2-17.8l-33,3.2c-4,.4-10.2.6-16.6.6-3,0-18-.4-21.4-.4-7.6,0-16.6.4-24.4,1.8l-.6-1.6c22.2-7.6,44.2-11.2,58.6-15.2,26.6-7.4,52.2-14.8,60.4-16.8,12.6-3,41.2-9.2,64.4-9.2,14.8,0,22.2,8,22.2,13.8,0,3-4.6,15.2-21.4,15.8l-47.4,4.2c-20.2,5.2-29.2,11.6-39,30.4,2,1,4.2,1.6,8.8,2.4,6.4,1,19.8,2.4,27.6,3.6,7.4,1.2,12.2,2.8,17.2,10.4,2.8,4.2,4,8,4,13.6,0,9.2-6.4,41.8-12,56-5.6,14.4-18.6,22-26.8,22-5.2,0-7.4-2.4-9-8.6-1.8-7.2-5.4-12.4-8.6-20-2.8-6.6-4.6-12.2-6.6-17.6l1.4-.8Z"/><path class="cls-1" d="M303.2,228.4c5.2-7.6,10.8-16,10.8-24.2,0-3.4-.8-7-3.4-9.8-1.4-1.6-2-2.8-2-4,0-1.6,1.4-2.4,2.8-2.4.8,0,11.2,2,13.4,2l3.6-.2c2.6,0,4,.8,4,2.4,0,1-.6,2.2-1.8,3.8-2.8,3.6-8,17-16.6,29.6,13.4-3.4,20.4-6.2,27.8-7.2,7.4-1,14.4-1.4,19.6-1.4h2.6c11.6.4,11.6,7,11.6,7.8,0,2.8-2.8,5-10.2,6.6-21.6,4.8-55.8,9.4-63.6,10.2-8.2,10.6-16,21.4-32.2,33.6l15.2-4c13.6-3.4,44.2-9.4,59.4-11.6-.4-3.6-1-6-2.2-7-2.6-2.4-4.8-3-4.8-4.2,0-1,3.8-3.8,6.2-3.8,1.6,0,3.2.8,5.2,2.2,2.8,2,4.8,4.6,5.2,11.8,7.4-1,9.8-3,14-3h.6c5,0,14-.2,22-1l2-.2c4.2,0,5.2,2,5.2,4.2,0,5.6-2.6,6.4-5.8,6.4-1.2,0-2.6,0-4.2-.4-5.4-1-21.4-1.8-33.8-1.8,0,9.4-5.4,39.8-14.2,52.2,4.6,1,8,2.4,8,5,0,3.4-2.4,4-8.4,6s-18.6,7-27.2,11.6c-6.6,3.4-27.2,16.2-29.2,17.8-1.2,1-1.8,1.8-1.8,2.4s1,1.2,2.4,1.2c4.2,0,10.4-2.8,15.6-6.2-.2-.4-.4-1-.4-1.4,0-1.2,2-5.6,5.2-5.6,1,0,1.4,0,5.2,1.4l8.8-4c2.6-1.2,4.6-1.4,6.6-1.4,11.8,0,12.4,2.8,12.4,5.8,0,2,0,3.6-16.2,9.4-2.4,7.2-3.2,9.8-4.6,28.6l18.6-7.6c3.8-2,4.8-4,8.8-4,1,0,15.2,2.6,16.6,2.8,7.4,1.4,7.4,13.8,7.4,14.2,0,6.6-3.6,11.2-6.8,11.2-2.2,0-15.2-4.4-15.2-9.4,0-.8.8-4.6.8-5.4,0-3.4-3.4-5.4-5.4-5.4-1.8,0-15.4,4.4-25.2,7.4-.8,10.8-1.4,21.4-1.4,24.6,0,2.8.2,5.2.2,7.6,0,8.6-5.8,12.8-7.4,12.8-2,0-3.6-2.2-6.4-6-6-8.4-20.8-17-26.8-20-1.2-.6-2.6-1-3.8-1-1.6,0-3,.4-4.2.8-2,.6-11.4,5-13.6,5-3,0-7.2-4-7.2-6.2,0-1.2.8-2.4,2.8-3.6,4-2.6,7.8-7.4,10.4-10.4,1.6-2,3.2-4,5.8-4,1.2,0,2.8.4,4.6,1.4,4,2,7,4,9.2,5,1.4.6,3.4,1.2,5.8,1.2,4.4,0,9-1.8,22-7v-15.2c0-4.4-.4-8.2-1-11.4-20,7-28,9.8-33.6,9.8-10.4,0-12.8-3.2-12.8-10,0-5.2,9-7,12.6-7l3,.4c6.8,0,32.4-19.6,32.4-22.2,0-.4-.4-.6-1.2-.6h-.8c-3.6.6-12.4,1.6-21.8,1.6-25.2,0-29.2-20.4-29.8-43.6-7.6,4-14.2,7.8-18,9.4-8,3.6-21,6-28.6,6-5.4,0-8.8-1-8.8-3.2,0-1.2.8-2.8,2-5,2.6-5,3-7.6,3-11.8,0-2.6,1.6-3.8,4.4-3.8,1.4,0,3.2.2,5.4.8,3.6,1,6.8,1.4,10.4,1.4,9.6,0,21.8-3.2,30.6-5.6,1.2-10.4,3.8-16.8,5.6-20.2.6-1.2,1-2,1.6-2.8-1.8-2-2.6-4.8-3-8.4-5,1-29,6.8-34.6,6.8-2.4,0-4.6-.2-7.4-.8l-.2-1.6c5-.6,8.2-1.4,13.4-2.8,9.6-2.6,19.8-6,28.8-8.6-.2-6.8-1.2-9.8-4-13.2-1.2-1.4-2-2.6-2-3.8,0-2.2,2.8-3.8,10-5.2l.6,1.4c-2.2,1.4-3.4,3.2-3.4,5,0,1.4.8,2.8,3.2,4,3.8,2,9,4.4,13.2,6.8l28.4-7.8ZM262.6,277.2c5.4-5.2,9.8-9.8,13.8-14-1.4,0-3-.2-4.8-.8l-2-.6c-5.2.2-6,3.4-7,11.2-.2,1.2-.4,2.8-.4,4.2h.4ZM288.8,303.4c1.8.4,3.2.6,4.4.6,3.8,0,6-1.6,7.4-4.6,2-3.8,6.8-16.8,6.8-24.6,0-1.4-.2-3-.6-4.8-18.6,4.4-26,7.2-44.4,16.2.4,7.8,1.6,16,2.8,21.2,2,8.2,3.8,14.4,21.4,14.4,10.6,0,24.4-2,31.8-3.8,5.6-1.4,9-3.6,12.4-4-1.8-2.2-3.4-5.4-4.2-7.6l1.2-1.4c2.4,1.4,4.2,2,5.8,2,3.4,0,5.2-2.8,6.6-6.4,2.4-7,4.4-24.4,4.4-33.6,0-1.4,0-2.6-.2-3.8-8.4.8-20.8,3-32.8,5.8,2.2,2.2,3.8,5.8,3.8,8.8,0,1.8-1.2,10-6.2,20.6-3.4,7.4-9.4,12-14.6,12-2.8,0-4-2.2-6.4-5.4l.6-1.6ZM305.6,392.8c-18,6-25,9-25,11.8,0,3.6,13,10,19.8,10,2.6,0,5.2-1.2,5.2-7.2v-14.6ZM282.8,244.2c1,2.8,1.4,5.6,1.4,7.8,0,.8,0,1.6-.2,2.6,3.6-4.2,6.4-8.2,9-11.8l-10.2,1.4Z"/><path class="cls-1" d="M300.2,613.59c0-1.4.2-2.8.4-4.2-9.8,1.6-21.8,4-33.2,6.4-.4.8-4.2,5-7.2,5-.4,0-4.2-.4-5.4-2.2-15.4,3.2-28.2,6.2-31.6,6.8-12,2.8-23.2,5.4-33.8,5.4-4,0-6-.8-8-4.4-1.2-2-5.4-12.6-5.4-16,0-3.8,5-4.6,5.6-4.6,1.6,0,9,3,10.8,3.4l.2,1.6c-3,.6-4.4,2.4-4.4,4.6,0,5.2,3.8,5.2,7.8,5.2,12.2,0,42.4-4.8,58.6-7.6.2-1.4.8-7.6.8-9,0-2.8-.8-6-2-8.8-.6-1.6-1-2.8-1-4,0-1.6.6-3,1.2-4.8,1.2-3.2,3.2-11.2,3.6-16.6l1-35.4c.2-10.6-2.6-21.6-4.8-21.6-1,0-16.8,19-20.8,21.6-3,2.2-6.2,3.4-9.2,3.4-8.2,0-11.4-11.4-11.4-15.8,0-3.4,1-7.4,4.2-10.6,7-7,14-14,19.4-16.4,12-5.4,45.8-37.4,48.8-52.6l1.6.2c.8,7.4.8,10,1.8,12.2.6,1.2,1,2.6,1,4.2s-.4,3.4-1.4,5.6c-2.2,4.4-14.8,26-22.4,34.6l-5.6,6.2c8.4,12.8,8.6,17.8,8.6,23,0,3.2-.2,6.4-.4,9.8,0,5-.4,39.2-.4,58,0,4,.4,10.4.4,14.4,8.4-1.4,20.8-3.4,33.8-5.2,1.2-5.4,2.2-10.2,8.2-10.2,1.4,0,2.6.6,4.2,1.4,2.6,1.6,6.6,4.4,11.4,5.4,17.8-2.6,33-4.6,36.2-4.8,14.8-1.2,20.4-4,35.2-11.4,2-1,4-1.6,5.8-1.6,6.2,0,7,8.4,7,10.4,0,3.2-1.4,5.8-4.6,7.6-4.6,2.6-13.6,5-22.4,5h-1c-6.2-.2-23.4-1.2-40.8-1.2-6.8,0-13.6.2-19.8.6-2.4,1.6-3.8,4-4,6-.4,2.2-.8,12-1.2,19.4l14.2-1.8c5.4-.8,6.8-2.2,10.6-4,3.2-1.4,4.4-2.6,6.8-2.6,2,0,11.6,2.2,13.8,2.2,1.8,0,9.8-2.6,11.8-2.6,5.2,0,6.4,6.6,6.4,7.6,0,5.8-12.4,8-18.4,8-4.2,0-6.8-1.2-10.2-2.8-4-1.6-7.2-2.8-11.2-2.8-3.2,0-15.8.6-23.8,1.2-.2,2.4-.2,4.6-.2,5.6,0,17-6,22.8-8,22.8-1.4,0-2.8-1-4.2-3.2-3.4-5.2-5-7.4-22-15.2-5.4,2.4-11.2,5.2-14,6.6-1.6.6-3,1-4.2,1-6.8,0-10.4-10.8-10.4-12.2,0-2.4,3.6-4.8,10.8-4.8,3.2,0,19.4-2.6,19.8-2.6,2,0,3.4.8,4.8,2,1.2,1,3,1.6,4.8,1.6,1.4,0,3-.4,6-1.2l1.4-21.2ZM301.2,467.8c7.2-4.6,9.8-5.8,13.4-6,2.8-.2,16.6-3.6,17.4-3.6,2.6,0,9.8,5.6,9.8,10.2,0,9.2-6.2,11.2-8.8,12.2-3,1.2-10.8,4.8-17.8,7.6,7.4-.8,14.4-1.4,16.4-1.8,5.8-.6,8-2.2,11.2-2.2,1.2,0,10.2,1.4,12.2,1.4,2.2,0,12.8-3.4,13.6-3.4,1.4,0,4.4,2,4.4,4.6,0,2.2-4.6,9-9.2,9-1.2,0-2.6-.2-4.2-.6-4.2-1.2-14.8-2.6-23.2-2.6-10.2,0-35.2,4.8-40,6.2-5.8,1.4-13.6,6-15.4,6.8-.6.2-1.4.4-2,.4-1.4,0-2.8-.8-3-4.2-.2-4.8-1.2-6.2-2.4-9-.2-.6-.4-1-.4-1.4,0-2.8,7-4.8,8.4-4.8s2.6.4,4.4,1.4c2.6,1.8,4.8,2.8,7.8,2.8,1,0,2.2,0,3.6-.4l9-1.2c2.8-2.6,9.6-10,9.6-14.4,0-1-.8-7.6-6.4-7.6-2,0-4.8.8-7.6,2l-.8-1.4ZM305.4,554.79c-3,.2-5.2.4-7.4-.8-2-1.2-7.2-4.8-7.2-7,0-.8.4-1.6,1-2.6l1.6.2c.6,2,3.6,2.8,6,2.8,3.6-.2,6.2-.8,10.4-2.6l13-5.2q.8-2.4.8-3.8c0-.8-.2-2-.4-3.2-8,0-27.2-.4-30-.6-3.2-.2-5.4-.8-7.2-2.4-1.8-1.6-6.2-6-6.2-7.4,0-1.8,5.6-3,6.8-3.2l1,1.2c-1.2.8-2,1.6-2,2.4,0,1.6,4.4,3,9.4,3,5.8,0,8.8-1.2,22.8-7.4-.4-1.6-.4-3-.4-4.4,0-3.8,1.2-4.8,4.6-6.8.8-.6,12.6-7,16.4-7,4,0,7,5.2,7,8.4,1,0,2,.4,3.2.6,4.4,1.4,6,3,7,7,.4,1.4.8,3,.8,4.4,0,4.4-2.2,5.4-15.6,9.6l-2,8.2c1.4.6,2.6,1.8,2.6,3.4,0,2.4-1.6,3.8-4.8,7.4-.4,1.8-.6,3-.6,5,0,2.2.4,5,1.2,7.6l8.8-3.8c3.4-1.8,7-2.6,10.6-2.6,5.2,0,13,1.6,13,6.6,0,6.2-1.4,9.8-2.2,11.8-3.6,8.4-26.4,15.6-44.4,15.6-9.6,0-30-2.2-34.4-3.4-4.2-1.2-12-5.2-12-9.2,0-2.8,4.4-6.4,6.4-8l1.2.8c-.8,1.6-1.6,3.2-1.6,4.4,0,3.2,4.2,4.6,7.4,4.6,2.2,0,4.4-.6,7-1.4,2.8-.8,15.2-5.6,27-10.2-1.2-3.6-2.2-8.2-2.4-13.2l-16.2,1.2ZM298.8,637.59c-4.8,1.2-8.2,2.4-14,5,3.4.6,6.2,1.2,8.2,1.4,3.6.4,5.2-1.2,5.8-6.4Z"/><path class="cls-1" d="M73.4,395.99c1.6,4.4,3,10.4,3,15.6,0,4.4-1.2,8.2-4.4,20-.2.6-.2,1.2-.2,1.6,0,1.2,0,2.6,5,2.6,4.2,0,13.6-.4,17.2-.4,6,0,14.4,6.6,14.4,12.8,0,1-.2,1.8-.4,2.8-1.4,8-2.6,10.4-6.6,14.8-18.6,21.2-56,96.8-58.8,104.4-4.8,14.4-5.2,15.6-10.8,15.6-9.4,0-16.6-14.4-17.4-19.6-1-6.2.2-10.2-1.6-23l2-.4c.6,1.6,6.8,20.6,14,20.6.8,0,1.6-.6,2.4-1.8,4-5.6,23.2-36.2,32.2-53.6,11.8-23.6,26.4-56.2,26.4-63.2,0-1.8-1.6-3.4-5-3.4-3.6,0-15.4,3.2-19.8,4.8-.8.4-1.8.4-2.6.4-2.4,0-4.8-1-5.8-2.6-.4-.4-5.4-8.2-5.4-14.6,0-2.2.6-4.6,2.2-6.6,3.6-4.2,11-10.6,14.6-15.4,2.2-2.8,3.6-6,3.6-9,0-.8,0-1.4-.2-2l2-.4ZM34,450.39c5.2,3,12.6,6.6,17.4,10.6,3,2.4,19.8,19.4,19.8,26.4,0,3.8-4.2,3.8-11.4,3.8-4.6,0-8.2-1.6-10.2-4.4-5.6-7.2-7.8-15-9.2-19.6-1.4-4.8-2.6-10.4-7.8-15.2l1.4-1.6Z"/><path class="cls-1" d="M84.8,577.19c-.6,7-2.2,11.6-7.4,20.4-3,5.2-15.8,23.4-24.8,35.4,7.8,7.2,9.4,13,11.6,21.8,2,8.6,6.8,41.2,6.8,47.4,0,5-1.2,8.2-4,10.6,0,0-7.2,6-12.6,6-6.2,0-6.2-5.4-6.2-11.2s.6-21.2,4-30.6c1.8-5.6,2.8-10.6,2.8-15,0-5.6-1-19.6-7-19.6-1.4,0-3.2.6-4.8,1.8-4.4,4.2-8,5.8-11,5.8-5.6,0-11-6.6-11-10,0-2.8,2-5.4,5-8.8,4.8-5.2,41.6-34,49.4-42.8,2.8-3.4,5.8-7.8,7.2-11.4l2,.2Z"/><path class="cls-1" d="M10.8,747.59c9.2-7,10.2-7.6,12.6-7.6,1.4,0,2.4.4,3.6,1,8.6,5.8,8.6,9,8.6,11.4,0,3.2-1.2,20.2-2,32.8,6.8,0,16.2-3.4,31.4-9.2,9.8-3.8,21.4-7.8,26-7.8,3,0,5.4,1.4,6.8,7.6.4,1.6.6,3.2.6,4.4,0,6-3.8,8-7.8,9.4-6.6,2.2-27.2,6-33,6-2.4,0-4.8-.4-7.6-1.2-3.2-.8-8.6-4-16.6-6.2-.8,11.6-4.2,34-4.2,43.6,0,10.6,4.4,14,11.6,14,4,0,19.4-2.6,35.4-10.2,6.8-3.2,12.2-7.2,16-9.2,1.8-1,3.2-1.4,4.4-1.4,3.4,0,5,5.8,5,7.8,0,2.8-1.4,5-3.6,6.6-13.6,9.2-41.8,17.8-57,17.8-14,0-20-10.4-20.8-18.2-.6-6-.6-10.6-.6-39.2,0-16-1.6-40.2-2.6-45.4-.8-5.2-3-5.2-5.6-5l-.6-1.8ZM139.8,750.19c0,9.8-7.8,17.4-17.4,17.4s-17.4-7.6-17.4-17.4,7.8-17.6,17.4-17.6,17.4,7.6,17.4,17.6ZM134.6,750.19c0-6.8-5.4-12.4-12.2-12.4s-12.4,5.4-12.4,12.4,5.4,12.2,12.4,12.2,12.2-5.4,12.2-12.2Z"/><path class="cls-1" d="M13.2,881.39c6.2,5,25,7.4,33.6,8.8,4.4.6,8.2,2.8,8.2,5.8,0,1.4-.6,2.6-2,4.2-5,5.6-12.2,8-17,8-2.8,0-6.2-.6-10.6-2-4.8-1.8-7.6-4.8-9.8-10.2-1.2-3.2-2.6-8.2-4.2-12.8l1.8-1.8ZM94.4,891.59c1.4.4,12.2,5.4,12.2,10.2,0,2.2-1.8,4-4,7.8-6.2,10.6-10.8,22.8-13.6,30.4-4,10.2-6.6,18.2-12.4,29-9.4,17.6-13.6,23.4-24.6,30.4-3,2-5.8,2.8-8,2.8-4,0-6.8-2-8.8-4.2-3.6-4-11-17.4-12.6-23.2l2-.8c3.4,5.2,10,6.2,13.6,6.2,2.6,0,5-.4,7-1,27.8-8.4,49.6-72.2,49.6-79.6,0-2.2-.6-4.2-1.8-6.2l1.4-1.8Z"/><path class="cls-1" d="M1.8,1173.59c2.8,4.8,7.2,11.4,10.6,11.4,1.4,0,3.2-.8,5-2.8,6.4-7.6,26.8-44,32.8-55.4,6-11.4,23-44,26.8-51,1.8-3.6,2.8-6.2,2.8-8.4,0-8.8-10.4-10.2-18.6-10.2-10.4,0-13,3.8-19.2,13.8-1.6,2.6-3.8,4-6,4-3.6,0-8.2-3.4-8.2-13.4,0-6.8,2.6-12.2,5.4-16.2,4.8-7.8,22.2-19,32.6-24.4l1.4,1.2c-.6,1-10.8,16.4-10.8,20.4s11.8,8.6,17.4,9.6c2.4.6,6.8,1,8.6,1.4,1.8.4,4.6.6,7.2,2.6,2.4,1.8,9,9.2,9,13.6,0,1.6-.6,3.2-2.4,4.6-2.2,1.8-5,4.6-8.6,8.6-7.4,8.6-20,29.4-29.6,47.6-8.2,15.6-25.6,56.2-28,59.8-12.4,17.2-22.4,19.2-23.2,19.2-2,0-4-1.6-5-5.2-1.4-5.2-1.8-23.4-1.8-30l1.8-.8ZM102,1042.99c5.8,1.4,19,4.6,19,14.4,0,4-3.4,5-5.4,5-9.4,0-13.8-14-15-18.2l1.4-1.2ZM119.6,1037.59c3-1,7.4-2.2,10.4-2.2,6,0,12.4,2.4,12.4,8,0,2.4-1.8,6.8-5.4,6.8-3.2,0-5.4-1.8-10.2-6-2.6-2.4-5.2-3.8-7.4-4.8l.2-1.8Z"/></g></svg>